<svg xmlns="http://www.w3.org/2000/svg" width="1020" height="60" viewBox="0 0 1020 60" shape-rendering="crispEdges">
<rect fill="#ff8cbf" x="0" y="0" width="12" height="12"/>
<rect fill="#ff8cbf" x="12" y="0" width="12" height="12"/>
<rect fill="#ff8cbf" x="24" y="0" width="12" height="12"/>
<rect fill="#ff8cbf" x="0" y="12" width="12" height="12"/>
<rect fill="#ff8cbf" x="36" y="12" width="12" height="12"/>
<rect fill="#ff8cbf" x="0" y="24" width="12" height="12"/>
<rect fill="#ff8cbf" x="36" y="24" width="12" height="12"/>
<rect fill="#ff8cbf" x="0" y="36" width="12" height="12"/>
<rect fill="#ff8cbf" x="36" y="36" width="12" height="12"/>
<rect fill="#ff8cbf" x="0" y="48" width="12" height="12"/>
<rect fill="#ff8cbf" x="12" y="48" width="12" height="12"/>
<rect fill="#ff8cbf" x="24" y="48" width="12" height="12"/>
<rect fill="#a8d8ff" x="60" y="0" width="12" height="12"/>
<rect fill="#a8d8ff" x="72" y="0" width="12" height="12"/>
<rect fill="#a8d8ff" x="84" y="0" width="12" height="12"/>
<rect fill="#a8d8ff" x="96" y="0" width="12" height="12"/>
<rect fill="#a8d8ff" x="60" y="12" width="12" height="12"/>
<rect fill="#a8d8ff" x="60" y="24" width="12" height="12"/>
<rect fill="#a8d8ff" x="72" y="24" width="12" height="12"/>
<rect fill="#a8d8ff" x="84" y="24" width="12" height="12"/>
<rect fill="#a8d8ff" x="60" y="36" width="12" height="12"/>
<rect fill="#a8d8ff" x="60" y="48" width="12" height="12"/>
<rect fill="#a8d8ff" x="72" y="48" width="12" height="12"/>
<rect fill="#a8d8ff" x="84" y="48" width="12" height="12"/>
<rect fill="#a8d8ff" x="96" y="48" width="12" height="12"/>
<rect fill="#fff3a8" x="120" y="0" width="12" height="12"/>
<rect fill="#fff3a8" x="168" y="0" width="12" height="12"/>
<rect fill="#fff3a8" x="120" y="12" width="12" height="12"/>
<rect fill="#fff3a8" x="168" y="12" width="12" height="12"/>
<rect fill="#fff3a8" x="132" y="24" width="12" height="12"/>
<rect fill="#fff3a8" x="156" y="24" width="12" height="12"/>
<rect fill="#fff3a8" x="132" y="36" width="12" height="12"/>
<rect fill="#fff3a8" x="156" y="36" width="12" height="12"/>
<rect fill="#fff3a8" x="144" y="48" width="12" height="12"/>
<rect fill="#ff9e9e" x="192" y="0" width="12" height="12"/>
<rect fill="#ff9e9e" x="204" y="0" width="12" height="12"/>
<rect fill="#ff9e9e" x="216" y="0" width="12" height="12"/>
<rect fill="#ff9e9e" x="228" y="0" width="12" height="12"/>
<rect fill="#ff9e9e" x="192" y="12" width="12" height="12"/>
<rect fill="#ff9e9e" x="192" y="24" width="12" height="12"/>
<rect fill="#ff9e9e" x="204" y="24" width="12" height="12"/>
<rect fill="#ff9e9e" x="216" y="24" width="12" height="12"/>
<rect fill="#ff9e9e" x="192" y="36" width="12" height="12"/>
<rect fill="#ff9e9e" x="192" y="48" width="12" height="12"/>
<rect fill="#ff9e9e" x="204" y="48" width="12" height="12"/>
<rect fill="#ff9e9e" x="216" y="48" width="12" height="12"/>
<rect fill="#ff9e9e" x="228" y="48" width="12" height="12"/>
<rect fill="#ff8cbf" x="252" y="0" width="12" height="12"/>
<rect fill="#ff8cbf" x="288" y="0" width="12" height="12"/>
<rect fill="#ff8cbf" x="252" y="12" width="12" height="12"/>
<rect fill="#ff8cbf" x="288" y="12" width="12" height="12"/>
<rect fill="#ff8cbf" x="264" y="24" width="12" height="12"/>
<rect fill="#ff8cbf" x="276" y="24" width="12" height="12"/>
<rect fill="#ff8cbf" x="252" y="36" width="12" height="12"/>
<rect fill="#ff8cbf" x="288" y="36" width="12" height="12"/>
<rect fill="#ff8cbf" x="252" y="48" width="12" height="12"/>
<rect fill="#ff8cbf" x="288" y="48" width="12" height="12"/>
<rect fill="#a8d8ff" x="348" y="0" width="12" height="12"/>
<rect fill="#a8d8ff" x="384" y="0" width="12" height="12"/>
<rect fill="#a8d8ff" x="348" y="12" width="12" height="12"/>
<rect fill="#a8d8ff" x="384" y="12" width="12" height="12"/>
<rect fill="#a8d8ff" x="348" y="24" width="12" height="12"/>
<rect fill="#a8d8ff" x="384" y="24" width="12" height="12"/>
<rect fill="#a8d8ff" x="348" y="36" width="12" height="12"/>
<rect fill="#a8d8ff" x="384" y="36" width="12" height="12"/>
<rect fill="#a8d8ff" x="360" y="48" width="12" height="12"/>
<rect fill="#a8d8ff" x="372" y="48" width="12" height="12"/>
<rect fill="#fff3a8" x="408" y="0" width="12" height="12"/>
<rect fill="#fff3a8" x="420" y="0" width="12" height="12"/>
<rect fill="#fff3a8" x="432" y="0" width="12" height="12"/>
<rect fill="#fff3a8" x="408" y="12" width="12" height="12"/>
<rect fill="#fff3a8" x="444" y="12" width="12" height="12"/>
<rect fill="#fff3a8" x="408" y="24" width="12" height="12"/>
<rect fill="#fff3a8" x="420" y="24" width="12" height="12"/>
<rect fill="#fff3a8" x="432" y="24" width="12" height="12"/>
<rect fill="#fff3a8" x="408" y="36" width="12" height="12"/>
<rect fill="#fff3a8" x="408" y="48" width="12" height="12"/>
<rect fill="#ff9e9e" x="468" y="0" width="12" height="12"/>
<rect fill="#ff9e9e" x="480" y="0" width="12" height="12"/>
<rect fill="#ff9e9e" x="492" y="0" width="12" height="12"/>
<rect fill="#ff9e9e" x="468" y="12" width="12" height="12"/>
<rect fill="#ff9e9e" x="504" y="12" width="12" height="12"/>
<rect fill="#ff9e9e" x="468" y="24" width="12" height="12"/>
<rect fill="#ff9e9e" x="504" y="24" width="12" height="12"/>
<rect fill="#ff9e9e" x="468" y="36" width="12" height="12"/>
<rect fill="#ff9e9e" x="504" y="36" width="12" height="12"/>
<rect fill="#ff9e9e" x="468" y="48" width="12" height="12"/>
<rect fill="#ff9e9e" x="480" y="48" width="12" height="12"/>
<rect fill="#ff9e9e" x="492" y="48" width="12" height="12"/>
<rect fill="#ff8cbf" x="540" y="0" width="12" height="12"/>
<rect fill="#ff8cbf" x="552" y="0" width="12" height="12"/>
<rect fill="#ff8cbf" x="528" y="12" width="12" height="12"/>
<rect fill="#ff8cbf" x="540" y="12" width="12" height="12"/>
<rect fill="#ff8cbf" x="552" y="12" width="12" height="12"/>
<rect fill="#ff8cbf" x="564" y="12" width="12" height="12"/>
<rect fill="#ff8cbf" x="528" y="24" width="12" height="12"/>
<rect fill="#ff8cbf" x="564" y="24" width="12" height="12"/>
<rect fill="#ff8cbf" x="528" y="36" width="12" height="12"/>
<rect fill="#ff8cbf" x="540" y="36" width="12" height="12"/>
<rect fill="#ff8cbf" x="552" y="36" width="12" height="12"/>
<rect fill="#ff8cbf" x="564" y="36" width="12" height="12"/>
<rect fill="#ff8cbf" x="528" y="48" width="12" height="12"/>
<rect fill="#ff8cbf" x="564" y="48" width="12" height="12"/>
<rect fill="#a8d8ff" x="588" y="0" width="12" height="12"/>
<rect fill="#a8d8ff" x="600" y="0" width="12" height="12"/>
<rect fill="#a8d8ff" x="612" y="0" width="12" height="12"/>
<rect fill="#a8d8ff" x="624" y="0" width="12" height="12"/>
<rect fill="#a8d8ff" x="636" y="0" width="12" height="12"/>
<rect fill="#a8d8ff" x="612" y="12" width="12" height="12"/>
<rect fill="#a8d8ff" x="612" y="24" width="12" height="12"/>
<rect fill="#a8d8ff" x="612" y="36" width="12" height="12"/>
<rect fill="#a8d8ff" x="612" y="48" width="12" height="12"/>
<rect fill="#fff3a8" x="660" y="0" width="12" height="12"/>
<rect fill="#fff3a8" x="672" y="0" width="12" height="12"/>
<rect fill="#fff3a8" x="684" y="0" width="12" height="12"/>
<rect fill="#fff3a8" x="696" y="0" width="12" height="12"/>
<rect fill="#fff3a8" x="660" y="12" width="12" height="12"/>
<rect fill="#fff3a8" x="660" y="24" width="12" height="12"/>
<rect fill="#fff3a8" x="672" y="24" width="12" height="12"/>
<rect fill="#fff3a8" x="684" y="24" width="12" height="12"/>
<rect fill="#fff3a8" x="660" y="36" width="12" height="12"/>
<rect fill="#fff3a8" x="660" y="48" width="12" height="12"/>
<rect fill="#fff3a8" x="672" y="48" width="12" height="12"/>
<rect fill="#fff3a8" x="684" y="48" width="12" height="12"/>
<rect fill="#fff3a8" x="696" y="48" width="12" height="12"/>
<rect fill="#ff9e9e" x="768" y="0" width="12" height="12"/>
<rect fill="#ff9e9e" x="756" y="12" width="12" height="12"/>
<rect fill="#ff9e9e" x="768" y="12" width="12" height="12"/>
<rect fill="#ff9e9e" x="768" y="24" width="12" height="12"/>
<rect fill="#ff9e9e" x="768" y="36" width="12" height="12"/>
<rect fill="#ff9e9e" x="756" y="48" width="12" height="12"/>
<rect fill="#ff9e9e" x="768" y="48" width="12" height="12"/>
<rect fill="#ff9e9e" x="780" y="48" width="12" height="12"/>
<rect fill="#ff8cbf" x="804" y="48" width="12" height="12"/>
<rect fill="#a8d8ff" x="840" y="0" width="12" height="12"/>
<rect fill="#a8d8ff" x="852" y="0" width="12" height="12"/>
<rect fill="#a8d8ff" x="828" y="12" width="12" height="12"/>
<rect fill="#a8d8ff" x="864" y="12" width="12" height="12"/>
<rect fill="#a8d8ff" x="840" y="24" width="12" height="12"/>
<rect fill="#a8d8ff" x="852" y="24" width="12" height="12"/>
<rect fill="#a8d8ff" x="828" y="36" width="12" height="12"/>
<rect fill="#a8d8ff" x="864" y="36" width="12" height="12"/>
<rect fill="#a8d8ff" x="840" y="48" width="12" height="12"/>
<rect fill="#a8d8ff" x="852" y="48" width="12" height="12"/>
<rect fill="#fff3a8" x="888" y="0" width="12" height="12"/>
<rect fill="#fff3a8" x="900" y="0" width="12" height="12"/>
<rect fill="#fff3a8" x="912" y="0" width="12" height="12"/>
<rect fill="#fff3a8" x="924" y="0" width="12" height="12"/>
<rect fill="#fff3a8" x="924" y="12" width="12" height="12"/>
<rect fill="#fff3a8" x="912" y="24" width="12" height="12"/>
<rect fill="#fff3a8" x="900" y="36" width="12" height="12"/>
<rect fill="#fff3a8" x="900" y="48" width="12" height="12"/>
<rect fill="#ff9e9e" x="948" y="36" width="12" height="12"/>
<rect fill="#ff9e9e" x="948" y="48" width="12" height="12"/>
<rect fill="#ff8cbf" x="972" y="0" width="12" height="12"/>
<rect fill="#ff8cbf" x="984" y="0" width="12" height="12"/>
<rect fill="#ff8cbf" x="996" y="0" width="12" height="12"/>
<rect fill="#ff8cbf" x="1008" y="0" width="12" height="12"/>
<rect fill="#ff8cbf" x="972" y="12" width="12" height="12"/>
<rect fill="#ff8cbf" x="972" y="24" width="12" height="12"/>
<rect fill="#ff8cbf" x="984" y="24" width="12" height="12"/>
<rect fill="#ff8cbf" x="996" y="24" width="12" height="12"/>
<rect fill="#ff8cbf" x="1008" y="36" width="12" height="12"/>
<rect fill="#ff8cbf" x="972" y="48" width="12" height="12"/>
<rect fill="#ff8cbf" x="984" y="48" width="12" height="12"/>
<rect fill="#ff8cbf" x="996" y="48" width="12" height="12"/>
</svg>
