<svg xmlns="http://www.w3.org/2000/svg" width="861" height="35" viewBox="0 0 861 35" shape-rendering="crispEdges">
<rect fill="#ff8cbf" x="0" y="0" width="7" height="7"/>
<rect fill="#ff8cbf" x="28" y="0" width="7" height="7"/>
<rect fill="#ff8cbf" x="0" y="7" width="7" height="7"/>
<rect fill="#ff8cbf" x="28" y="7" width="7" height="7"/>
<rect fill="#ff8cbf" x="0" y="14" width="7" height="7"/>
<rect fill="#ff8cbf" x="14" y="14" width="7" height="7"/>
<rect fill="#ff8cbf" x="28" y="14" width="7" height="7"/>
<rect fill="#ff8cbf" x="0" y="21" width="7" height="7"/>
<rect fill="#ff8cbf" x="7" y="21" width="7" height="7"/>
<rect fill="#ff8cbf" x="21" y="21" width="7" height="7"/>
<rect fill="#ff8cbf" x="28" y="21" width="7" height="7"/>
<rect fill="#ff8cbf" x="0" y="28" width="7" height="7"/>
<rect fill="#ff8cbf" x="28" y="28" width="7" height="7"/>
<rect fill="#a8d8ff" x="42" y="0" width="7" height="7"/>
<rect fill="#a8d8ff" x="63" y="0" width="7" height="7"/>
<rect fill="#a8d8ff" x="42" y="7" width="7" height="7"/>
<rect fill="#a8d8ff" x="63" y="7" width="7" height="7"/>
<rect fill="#a8d8ff" x="42" y="14" width="7" height="7"/>
<rect fill="#a8d8ff" x="49" y="14" width="7" height="7"/>
<rect fill="#a8d8ff" x="56" y="14" width="7" height="7"/>
<rect fill="#a8d8ff" x="63" y="14" width="7" height="7"/>
<rect fill="#a8d8ff" x="42" y="21" width="7" height="7"/>
<rect fill="#a8d8ff" x="63" y="21" width="7" height="7"/>
<rect fill="#a8d8ff" x="42" y="28" width="7" height="7"/>
<rect fill="#a8d8ff" x="63" y="28" width="7" height="7"/>
<rect fill="#fff3a8" x="84" y="0" width="7" height="7"/>
<rect fill="#fff3a8" x="91" y="0" width="7" height="7"/>
<rect fill="#fff3a8" x="77" y="7" width="7" height="7"/>
<rect fill="#fff3a8" x="84" y="7" width="7" height="7"/>
<rect fill="#fff3a8" x="91" y="7" width="7" height="7"/>
<rect fill="#fff3a8" x="98" y="7" width="7" height="7"/>
<rect fill="#fff3a8" x="77" y="14" width="7" height="7"/>
<rect fill="#fff3a8" x="98" y="14" width="7" height="7"/>
<rect fill="#fff3a8" x="77" y="21" width="7" height="7"/>
<rect fill="#fff3a8" x="84" y="21" width="7" height="7"/>
<rect fill="#fff3a8" x="91" y="21" width="7" height="7"/>
<rect fill="#fff3a8" x="98" y="21" width="7" height="7"/>
<rect fill="#fff3a8" x="77" y="28" width="7" height="7"/>
<rect fill="#fff3a8" x="98" y="28" width="7" height="7"/>
<rect fill="#ff9e9e" x="112" y="0" width="7" height="7"/>
<rect fill="#ff9e9e" x="119" y="0" width="7" height="7"/>
<rect fill="#ff9e9e" x="126" y="0" width="7" height="7"/>
<rect fill="#ff9e9e" x="133" y="0" width="7" height="7"/>
<rect fill="#ff9e9e" x="140" y="0" width="7" height="7"/>
<rect fill="#ff9e9e" x="126" y="7" width="7" height="7"/>
<rect fill="#ff9e9e" x="126" y="14" width="7" height="7"/>
<rect fill="#ff9e9e" x="126" y="21" width="7" height="7"/>
<rect fill="#ff9e9e" x="126" y="28" width="7" height="7"/>
<rect fill="#ff8cbf" x="175" y="0" width="7" height="7"/>
<rect fill="#ff8cbf" x="182" y="0" width="7" height="7"/>
<rect fill="#ff8cbf" x="189" y="0" width="7" height="7"/>
<rect fill="#ff8cbf" x="175" y="7" width="7" height="7"/>
<rect fill="#ff8cbf" x="196" y="7" width="7" height="7"/>
<rect fill="#ff8cbf" x="175" y="14" width="7" height="7"/>
<rect fill="#ff8cbf" x="182" y="14" width="7" height="7"/>
<rect fill="#ff8cbf" x="189" y="14" width="7" height="7"/>
<rect fill="#ff8cbf" x="175" y="21" width="7" height="7"/>
<rect fill="#ff8cbf" x="196" y="21" width="7" height="7"/>
<rect fill="#ff8cbf" x="175" y="28" width="7" height="7"/>
<rect fill="#ff8cbf" x="182" y="28" width="7" height="7"/>
<rect fill="#ff8cbf" x="189" y="28" width="7" height="7"/>
<rect fill="#a8d8ff" x="210" y="0" width="7" height="7"/>
<rect fill="#a8d8ff" x="210" y="7" width="7" height="7"/>
<rect fill="#a8d8ff" x="210" y="14" width="7" height="7"/>
<rect fill="#a8d8ff" x="210" y="21" width="7" height="7"/>
<rect fill="#a8d8ff" x="210" y="28" width="7" height="7"/>
<rect fill="#a8d8ff" x="217" y="28" width="7" height="7"/>
<rect fill="#a8d8ff" x="224" y="28" width="7" height="7"/>
<rect fill="#a8d8ff" x="231" y="28" width="7" height="7"/>
<rect fill="#fff3a8" x="245" y="0" width="7" height="7"/>
<rect fill="#fff3a8" x="252" y="0" width="7" height="7"/>
<rect fill="#fff3a8" x="259" y="0" width="7" height="7"/>
<rect fill="#fff3a8" x="266" y="0" width="7" height="7"/>
<rect fill="#fff3a8" x="245" y="7" width="7" height="7"/>
<rect fill="#fff3a8" x="245" y="14" width="7" height="7"/>
<rect fill="#fff3a8" x="252" y="14" width="7" height="7"/>
<rect fill="#fff3a8" x="259" y="14" width="7" height="7"/>
<rect fill="#fff3a8" x="245" y="21" width="7" height="7"/>
<rect fill="#fff3a8" x="245" y="28" width="7" height="7"/>
<rect fill="#fff3a8" x="252" y="28" width="7" height="7"/>
<rect fill="#fff3a8" x="259" y="28" width="7" height="7"/>
<rect fill="#fff3a8" x="266" y="28" width="7" height="7"/>
<rect fill="#ff9e9e" x="280" y="0" width="7" height="7"/>
<rect fill="#ff9e9e" x="308" y="0" width="7" height="7"/>
<rect fill="#ff9e9e" x="280" y="7" width="7" height="7"/>
<rect fill="#ff9e9e" x="308" y="7" width="7" height="7"/>
<rect fill="#ff9e9e" x="280" y="14" width="7" height="7"/>
<rect fill="#ff9e9e" x="294" y="14" width="7" height="7"/>
<rect fill="#ff9e9e" x="308" y="14" width="7" height="7"/>
<rect fill="#ff9e9e" x="280" y="21" width="7" height="7"/>
<rect fill="#ff9e9e" x="287" y="21" width="7" height="7"/>
<rect fill="#ff9e9e" x="301" y="21" width="7" height="7"/>
<rect fill="#ff9e9e" x="308" y="21" width="7" height="7"/>
<rect fill="#ff9e9e" x="280" y="28" width="7" height="7"/>
<rect fill="#ff9e9e" x="308" y="28" width="7" height="7"/>
<rect fill="#ff8cbf" x="343" y="0" width="7" height="7"/>
<rect fill="#ff8cbf" x="364" y="0" width="7" height="7"/>
<rect fill="#ff8cbf" x="343" y="7" width="7" height="7"/>
<rect fill="#ff8cbf" x="364" y="7" width="7" height="7"/>
<rect fill="#ff8cbf" x="343" y="14" width="7" height="7"/>
<rect fill="#ff8cbf" x="364" y="14" width="7" height="7"/>
<rect fill="#ff8cbf" x="343" y="21" width="7" height="7"/>
<rect fill="#ff8cbf" x="364" y="21" width="7" height="7"/>
<rect fill="#ff8cbf" x="350" y="28" width="7" height="7"/>
<rect fill="#ff8cbf" x="357" y="28" width="7" height="7"/>
<rect fill="#a8d8ff" x="378" y="0" width="7" height="7"/>
<rect fill="#a8d8ff" x="385" y="0" width="7" height="7"/>
<rect fill="#a8d8ff" x="392" y="0" width="7" height="7"/>
<rect fill="#a8d8ff" x="378" y="7" width="7" height="7"/>
<rect fill="#a8d8ff" x="399" y="7" width="7" height="7"/>
<rect fill="#a8d8ff" x="378" y="14" width="7" height="7"/>
<rect fill="#a8d8ff" x="385" y="14" width="7" height="7"/>
<rect fill="#a8d8ff" x="392" y="14" width="7" height="7"/>
<rect fill="#a8d8ff" x="378" y="21" width="7" height="7"/>
<rect fill="#a8d8ff" x="378" y="28" width="7" height="7"/>
<rect fill="#fff3a8" x="434" y="0" width="7" height="7"/>
<rect fill="#fff3a8" x="441" y="0" width="7" height="7"/>
<rect fill="#fff3a8" x="448" y="0" width="7" height="7"/>
<rect fill="#fff3a8" x="455" y="0" width="7" height="7"/>
<rect fill="#fff3a8" x="462" y="0" width="7" height="7"/>
<rect fill="#fff3a8" x="448" y="7" width="7" height="7"/>
<rect fill="#fff3a8" x="448" y="14" width="7" height="7"/>
<rect fill="#fff3a8" x="448" y="21" width="7" height="7"/>
<rect fill="#fff3a8" x="448" y="28" width="7" height="7"/>
<rect fill="#ff9e9e" x="476" y="0" width="7" height="7"/>
<rect fill="#ff9e9e" x="497" y="0" width="7" height="7"/>
<rect fill="#ff9e9e" x="476" y="7" width="7" height="7"/>
<rect fill="#ff9e9e" x="497" y="7" width="7" height="7"/>
<rect fill="#ff9e9e" x="476" y="14" width="7" height="7"/>
<rect fill="#ff9e9e" x="483" y="14" width="7" height="7"/>
<rect fill="#ff9e9e" x="490" y="14" width="7" height="7"/>
<rect fill="#ff9e9e" x="497" y="14" width="7" height="7"/>
<rect fill="#ff9e9e" x="476" y="21" width="7" height="7"/>
<rect fill="#ff9e9e" x="497" y="21" width="7" height="7"/>
<rect fill="#ff9e9e" x="476" y="28" width="7" height="7"/>
<rect fill="#ff9e9e" x="497" y="28" width="7" height="7"/>
<rect fill="#ff8cbf" x="511" y="0" width="7" height="7"/>
<rect fill="#ff8cbf" x="518" y="0" width="7" height="7"/>
<rect fill="#ff8cbf" x="525" y="0" width="7" height="7"/>
<rect fill="#ff8cbf" x="532" y="0" width="7" height="7"/>
<rect fill="#ff8cbf" x="511" y="7" width="7" height="7"/>
<rect fill="#ff8cbf" x="511" y="14" width="7" height="7"/>
<rect fill="#ff8cbf" x="518" y="14" width="7" height="7"/>
<rect fill="#ff8cbf" x="525" y="14" width="7" height="7"/>
<rect fill="#ff8cbf" x="511" y="21" width="7" height="7"/>
<rect fill="#ff8cbf" x="511" y="28" width="7" height="7"/>
<rect fill="#ff8cbf" x="518" y="28" width="7" height="7"/>
<rect fill="#ff8cbf" x="525" y="28" width="7" height="7"/>
<rect fill="#ff8cbf" x="532" y="28" width="7" height="7"/>
<rect fill="#a8d8ff" x="567" y="0" width="7" height="7"/>
<rect fill="#a8d8ff" x="595" y="0" width="7" height="7"/>
<rect fill="#a8d8ff" x="567" y="7" width="7" height="7"/>
<rect fill="#a8d8ff" x="574" y="7" width="7" height="7"/>
<rect fill="#a8d8ff" x="588" y="7" width="7" height="7"/>
<rect fill="#a8d8ff" x="595" y="7" width="7" height="7"/>
<rect fill="#a8d8ff" x="567" y="14" width="7" height="7"/>
<rect fill="#a8d8ff" x="581" y="14" width="7" height="7"/>
<rect fill="#a8d8ff" x="595" y="14" width="7" height="7"/>
<rect fill="#a8d8ff" x="567" y="21" width="7" height="7"/>
<rect fill="#a8d8ff" x="595" y="21" width="7" height="7"/>
<rect fill="#a8d8ff" x="567" y="28" width="7" height="7"/>
<rect fill="#a8d8ff" x="595" y="28" width="7" height="7"/>
<rect fill="#fff3a8" x="616" y="0" width="7" height="7"/>
<rect fill="#fff3a8" x="623" y="0" width="7" height="7"/>
<rect fill="#fff3a8" x="609" y="7" width="7" height="7"/>
<rect fill="#fff3a8" x="630" y="7" width="7" height="7"/>
<rect fill="#fff3a8" x="609" y="14" width="7" height="7"/>
<rect fill="#fff3a8" x="630" y="14" width="7" height="7"/>
<rect fill="#fff3a8" x="609" y="21" width="7" height="7"/>
<rect fill="#fff3a8" x="630" y="21" width="7" height="7"/>
<rect fill="#fff3a8" x="616" y="28" width="7" height="7"/>
<rect fill="#fff3a8" x="623" y="28" width="7" height="7"/>
<rect fill="#ff9e9e" x="644" y="0" width="7" height="7"/>
<rect fill="#ff9e9e" x="665" y="0" width="7" height="7"/>
<rect fill="#ff9e9e" x="644" y="7" width="7" height="7"/>
<rect fill="#ff9e9e" x="665" y="7" width="7" height="7"/>
<rect fill="#ff9e9e" x="644" y="14" width="7" height="7"/>
<rect fill="#ff9e9e" x="665" y="14" width="7" height="7"/>
<rect fill="#ff9e9e" x="644" y="21" width="7" height="7"/>
<rect fill="#ff9e9e" x="665" y="21" width="7" height="7"/>
<rect fill="#ff9e9e" x="651" y="28" width="7" height="7"/>
<rect fill="#ff9e9e" x="658" y="28" width="7" height="7"/>
<rect fill="#ff8cbf" x="679" y="0" width="7" height="7"/>
<rect fill="#ff8cbf" x="707" y="0" width="7" height="7"/>
<rect fill="#ff8cbf" x="679" y="7" width="7" height="7"/>
<rect fill="#ff8cbf" x="686" y="7" width="7" height="7"/>
<rect fill="#ff8cbf" x="707" y="7" width="7" height="7"/>
<rect fill="#ff8cbf" x="679" y="14" width="7" height="7"/>
<rect fill="#ff8cbf" x="693" y="14" width="7" height="7"/>
<rect fill="#ff8cbf" x="707" y="14" width="7" height="7"/>
<rect fill="#ff8cbf" x="679" y="21" width="7" height="7"/>
<rect fill="#ff8cbf" x="700" y="21" width="7" height="7"/>
<rect fill="#ff8cbf" x="707" y="21" width="7" height="7"/>
<rect fill="#ff8cbf" x="679" y="28" width="7" height="7"/>
<rect fill="#ff8cbf" x="707" y="28" width="7" height="7"/>
<rect fill="#a8d8ff" x="721" y="0" width="7" height="7"/>
<rect fill="#a8d8ff" x="728" y="0" width="7" height="7"/>
<rect fill="#a8d8ff" x="735" y="0" width="7" height="7"/>
<rect fill="#a8d8ff" x="742" y="0" width="7" height="7"/>
<rect fill="#a8d8ff" x="749" y="0" width="7" height="7"/>
<rect fill="#a8d8ff" x="735" y="7" width="7" height="7"/>
<rect fill="#a8d8ff" x="735" y="14" width="7" height="7"/>
<rect fill="#a8d8ff" x="735" y="21" width="7" height="7"/>
<rect fill="#a8d8ff" x="735" y="28" width="7" height="7"/>
<rect fill="#fff3a8" x="770" y="0" width="7" height="7"/>
<rect fill="#fff3a8" x="777" y="0" width="7" height="7"/>
<rect fill="#fff3a8" x="763" y="7" width="7" height="7"/>
<rect fill="#fff3a8" x="770" y="7" width="7" height="7"/>
<rect fill="#fff3a8" x="777" y="7" width="7" height="7"/>
<rect fill="#fff3a8" x="784" y="7" width="7" height="7"/>
<rect fill="#fff3a8" x="763" y="14" width="7" height="7"/>
<rect fill="#fff3a8" x="784" y="14" width="7" height="7"/>
<rect fill="#fff3a8" x="763" y="21" width="7" height="7"/>
<rect fill="#fff3a8" x="770" y="21" width="7" height="7"/>
<rect fill="#fff3a8" x="777" y="21" width="7" height="7"/>
<rect fill="#fff3a8" x="784" y="21" width="7" height="7"/>
<rect fill="#fff3a8" x="763" y="28" width="7" height="7"/>
<rect fill="#fff3a8" x="784" y="28" width="7" height="7"/>
<rect fill="#ff9e9e" x="798" y="0" width="7" height="7"/>
<rect fill="#ff9e9e" x="805" y="0" width="7" height="7"/>
<rect fill="#ff9e9e" x="812" y="0" width="7" height="7"/>
<rect fill="#ff9e9e" x="805" y="7" width="7" height="7"/>
<rect fill="#ff9e9e" x="805" y="14" width="7" height="7"/>
<rect fill="#ff9e9e" x="805" y="21" width="7" height="7"/>
<rect fill="#ff9e9e" x="798" y="28" width="7" height="7"/>
<rect fill="#ff9e9e" x="805" y="28" width="7" height="7"/>
<rect fill="#ff9e9e" x="812" y="28" width="7" height="7"/>
<rect fill="#ff8cbf" x="826" y="0" width="7" height="7"/>
<rect fill="#ff8cbf" x="854" y="0" width="7" height="7"/>
<rect fill="#ff8cbf" x="826" y="7" width="7" height="7"/>
<rect fill="#ff8cbf" x="833" y="7" width="7" height="7"/>
<rect fill="#ff8cbf" x="854" y="7" width="7" height="7"/>
<rect fill="#ff8cbf" x="826" y="14" width="7" height="7"/>
<rect fill="#ff8cbf" x="840" y="14" width="7" height="7"/>
<rect fill="#ff8cbf" x="854" y="14" width="7" height="7"/>
<rect fill="#ff8cbf" x="826" y="21" width="7" height="7"/>
<rect fill="#ff8cbf" x="847" y="21" width="7" height="7"/>
<rect fill="#ff8cbf" x="854" y="21" width="7" height="7"/>
<rect fill="#ff8cbf" x="826" y="28" width="7" height="7"/>
<rect fill="#ff8cbf" x="854" y="28" width="7" height="7"/>
</svg>
