<svg xmlns="http://www.w3.org/2000/svg" width="427" height="35" viewBox="0 0 427 35" shape-rendering="crispEdges">
<rect fill="#ff8cbf" x="0" y="0" width="7" height="7"/>
<rect fill="#ff8cbf" x="7" y="0" width="7" height="7"/>
<rect fill="#ff8cbf" x="14" y="0" width="7" height="7"/>
<rect fill="#ff8cbf" x="0" y="7" width="7" height="7"/>
<rect fill="#ff8cbf" x="21" y="7" width="7" height="7"/>
<rect fill="#ff8cbf" x="0" y="14" width="7" height="7"/>
<rect fill="#ff8cbf" x="7" y="14" width="7" height="7"/>
<rect fill="#ff8cbf" x="14" y="14" width="7" height="7"/>
<rect fill="#ff8cbf" x="0" y="21" width="7" height="7"/>
<rect fill="#ff8cbf" x="14" y="21" width="7" height="7"/>
<rect fill="#ff8cbf" x="0" y="28" width="7" height="7"/>
<rect fill="#ff8cbf" x="21" y="28" width="7" height="7"/>
<rect fill="#a8d8ff" x="35" y="0" width="7" height="7"/>
<rect fill="#a8d8ff" x="42" y="0" width="7" height="7"/>
<rect fill="#a8d8ff" x="49" y="0" width="7" height="7"/>
<rect fill="#a8d8ff" x="56" y="0" width="7" height="7"/>
<rect fill="#a8d8ff" x="35" y="7" width="7" height="7"/>
<rect fill="#a8d8ff" x="35" y="14" width="7" height="7"/>
<rect fill="#a8d8ff" x="42" y="14" width="7" height="7"/>
<rect fill="#a8d8ff" x="49" y="14" width="7" height="7"/>
<rect fill="#a8d8ff" x="35" y="21" width="7" height="7"/>
<rect fill="#a8d8ff" x="35" y="28" width="7" height="7"/>
<rect fill="#a8d8ff" x="42" y="28" width="7" height="7"/>
<rect fill="#a8d8ff" x="49" y="28" width="7" height="7"/>
<rect fill="#a8d8ff" x="56" y="28" width="7" height="7"/>
<rect fill="#fff3a8" x="77" y="0" width="7" height="7"/>
<rect fill="#fff3a8" x="84" y="0" width="7" height="7"/>
<rect fill="#fff3a8" x="70" y="7" width="7" height="7"/>
<rect fill="#fff3a8" x="91" y="7" width="7" height="7"/>
<rect fill="#fff3a8" x="70" y="14" width="7" height="7"/>
<rect fill="#fff3a8" x="84" y="14" width="7" height="7"/>
<rect fill="#fff3a8" x="91" y="14" width="7" height="7"/>
<rect fill="#fff3a8" x="77" y="21" width="7" height="7"/>
<rect fill="#fff3a8" x="84" y="21" width="7" height="7"/>
<rect fill="#fff3a8" x="91" y="21" width="7" height="7"/>
<rect fill="#fff3a8" x="91" y="28" width="7" height="7"/>
<rect fill="#ff9e9e" x="105" y="0" width="7" height="7"/>
<rect fill="#ff9e9e" x="126" y="0" width="7" height="7"/>
<rect fill="#ff9e9e" x="105" y="7" width="7" height="7"/>
<rect fill="#ff9e9e" x="126" y="7" width="7" height="7"/>
<rect fill="#ff9e9e" x="105" y="14" width="7" height="7"/>
<rect fill="#ff9e9e" x="126" y="14" width="7" height="7"/>
<rect fill="#ff9e9e" x="105" y="21" width="7" height="7"/>
<rect fill="#ff9e9e" x="126" y="21" width="7" height="7"/>
<rect fill="#ff9e9e" x="112" y="28" width="7" height="7"/>
<rect fill="#ff9e9e" x="119" y="28" width="7" height="7"/>
<rect fill="#ff8cbf" x="140" y="0" width="7" height="7"/>
<rect fill="#ff8cbf" x="147" y="0" width="7" height="7"/>
<rect fill="#ff8cbf" x="154" y="0" width="7" height="7"/>
<rect fill="#ff8cbf" x="147" y="7" width="7" height="7"/>
<rect fill="#ff8cbf" x="147" y="14" width="7" height="7"/>
<rect fill="#ff8cbf" x="147" y="21" width="7" height="7"/>
<rect fill="#ff8cbf" x="140" y="28" width="7" height="7"/>
<rect fill="#ff8cbf" x="147" y="28" width="7" height="7"/>
<rect fill="#ff8cbf" x="154" y="28" width="7" height="7"/>
<rect fill="#a8d8ff" x="168" y="0" width="7" height="7"/>
<rect fill="#a8d8ff" x="175" y="0" width="7" height="7"/>
<rect fill="#a8d8ff" x="182" y="0" width="7" height="7"/>
<rect fill="#a8d8ff" x="168" y="7" width="7" height="7"/>
<rect fill="#a8d8ff" x="189" y="7" width="7" height="7"/>
<rect fill="#a8d8ff" x="168" y="14" width="7" height="7"/>
<rect fill="#a8d8ff" x="175" y="14" width="7" height="7"/>
<rect fill="#a8d8ff" x="182" y="14" width="7" height="7"/>
<rect fill="#a8d8ff" x="168" y="21" width="7" height="7"/>
<rect fill="#a8d8ff" x="182" y="21" width="7" height="7"/>
<rect fill="#a8d8ff" x="168" y="28" width="7" height="7"/>
<rect fill="#a8d8ff" x="189" y="28" width="7" height="7"/>
<rect fill="#fff3a8" x="203" y="0" width="7" height="7"/>
<rect fill="#fff3a8" x="210" y="0" width="7" height="7"/>
<rect fill="#fff3a8" x="217" y="0" width="7" height="7"/>
<rect fill="#fff3a8" x="224" y="0" width="7" height="7"/>
<rect fill="#fff3a8" x="203" y="7" width="7" height="7"/>
<rect fill="#fff3a8" x="203" y="14" width="7" height="7"/>
<rect fill="#fff3a8" x="210" y="14" width="7" height="7"/>
<rect fill="#fff3a8" x="217" y="14" width="7" height="7"/>
<rect fill="#fff3a8" x="203" y="21" width="7" height="7"/>
<rect fill="#fff3a8" x="203" y="28" width="7" height="7"/>
<rect fill="#fff3a8" x="210" y="28" width="7" height="7"/>
<rect fill="#fff3a8" x="217" y="28" width="7" height="7"/>
<rect fill="#fff3a8" x="224" y="28" width="7" height="7"/>
<rect fill="#ff9e9e" x="238" y="0" width="7" height="7"/>
<rect fill="#ff9e9e" x="266" y="0" width="7" height="7"/>
<rect fill="#ff9e9e" x="238" y="7" width="7" height="7"/>
<rect fill="#ff9e9e" x="245" y="7" width="7" height="7"/>
<rect fill="#ff9e9e" x="259" y="7" width="7" height="7"/>
<rect fill="#ff9e9e" x="266" y="7" width="7" height="7"/>
<rect fill="#ff9e9e" x="238" y="14" width="7" height="7"/>
<rect fill="#ff9e9e" x="252" y="14" width="7" height="7"/>
<rect fill="#ff9e9e" x="266" y="14" width="7" height="7"/>
<rect fill="#ff9e9e" x="238" y="21" width="7" height="7"/>
<rect fill="#ff9e9e" x="266" y="21" width="7" height="7"/>
<rect fill="#ff9e9e" x="238" y="28" width="7" height="7"/>
<rect fill="#ff9e9e" x="266" y="28" width="7" height="7"/>
<rect fill="#ff8cbf" x="280" y="0" width="7" height="7"/>
<rect fill="#ff8cbf" x="287" y="0" width="7" height="7"/>
<rect fill="#ff8cbf" x="294" y="0" width="7" height="7"/>
<rect fill="#ff8cbf" x="301" y="0" width="7" height="7"/>
<rect fill="#ff8cbf" x="280" y="7" width="7" height="7"/>
<rect fill="#ff8cbf" x="280" y="14" width="7" height="7"/>
<rect fill="#ff8cbf" x="287" y="14" width="7" height="7"/>
<rect fill="#ff8cbf" x="294" y="14" width="7" height="7"/>
<rect fill="#ff8cbf" x="280" y="21" width="7" height="7"/>
<rect fill="#ff8cbf" x="280" y="28" width="7" height="7"/>
<rect fill="#ff8cbf" x="287" y="28" width="7" height="7"/>
<rect fill="#ff8cbf" x="294" y="28" width="7" height="7"/>
<rect fill="#ff8cbf" x="301" y="28" width="7" height="7"/>
<rect fill="#a8d8ff" x="315" y="0" width="7" height="7"/>
<rect fill="#a8d8ff" x="343" y="0" width="7" height="7"/>
<rect fill="#a8d8ff" x="315" y="7" width="7" height="7"/>
<rect fill="#a8d8ff" x="322" y="7" width="7" height="7"/>
<rect fill="#a8d8ff" x="343" y="7" width="7" height="7"/>
<rect fill="#a8d8ff" x="315" y="14" width="7" height="7"/>
<rect fill="#a8d8ff" x="329" y="14" width="7" height="7"/>
<rect fill="#a8d8ff" x="343" y="14" width="7" height="7"/>
<rect fill="#a8d8ff" x="315" y="21" width="7" height="7"/>
<rect fill="#a8d8ff" x="336" y="21" width="7" height="7"/>
<rect fill="#a8d8ff" x="343" y="21" width="7" height="7"/>
<rect fill="#a8d8ff" x="315" y="28" width="7" height="7"/>
<rect fill="#a8d8ff" x="343" y="28" width="7" height="7"/>
<rect fill="#fff3a8" x="357" y="0" width="7" height="7"/>
<rect fill="#fff3a8" x="364" y="0" width="7" height="7"/>
<rect fill="#fff3a8" x="371" y="0" width="7" height="7"/>
<rect fill="#fff3a8" x="378" y="0" width="7" height="7"/>
<rect fill="#fff3a8" x="385" y="0" width="7" height="7"/>
<rect fill="#fff3a8" x="371" y="7" width="7" height="7"/>
<rect fill="#fff3a8" x="371" y="14" width="7" height="7"/>
<rect fill="#fff3a8" x="371" y="21" width="7" height="7"/>
<rect fill="#fff3a8" x="371" y="28" width="7" height="7"/>
<rect fill="#ff9e9e" x="406" y="0" width="7" height="7"/>
<rect fill="#ff9e9e" x="413" y="0" width="7" height="7"/>
<rect fill="#ff9e9e" x="420" y="0" width="7" height="7"/>
<rect fill="#ff9e9e" x="399" y="7" width="7" height="7"/>
<rect fill="#ff9e9e" x="406" y="14" width="7" height="7"/>
<rect fill="#ff9e9e" x="413" y="14" width="7" height="7"/>
<rect fill="#ff9e9e" x="420" y="21" width="7" height="7"/>
<rect fill="#ff9e9e" x="399" y="28" width="7" height="7"/>
<rect fill="#ff9e9e" x="406" y="28" width="7" height="7"/>
<rect fill="#ff9e9e" x="413" y="28" width="7" height="7"/>
</svg>
