<svg xmlns="http://www.w3.org/2000/svg" width="310" height="50" viewBox="0 0 310 50" shape-rendering="crispEdges">
<rect fill="#ff8cbf" x="0" y="0" width="10" height="10"/>
<rect fill="#ff8cbf" x="40" y="0" width="10" height="10"/>
<rect fill="#ff8cbf" x="0" y="10" width="10" height="10"/>
<rect fill="#ff8cbf" x="40" y="10" width="10" height="10"/>
<rect fill="#ff8cbf" x="10" y="20" width="10" height="10"/>
<rect fill="#ff8cbf" x="30" y="20" width="10" height="10"/>
<rect fill="#ff8cbf" x="10" y="30" width="10" height="10"/>
<rect fill="#ff8cbf" x="30" y="30" width="10" height="10"/>
<rect fill="#ff8cbf" x="20" y="40" width="10" height="10"/>
<rect fill="#a8d8ff" x="100" y="0" width="10" height="10"/>
<rect fill="#a8d8ff" x="110" y="0" width="10" height="10"/>
<rect fill="#a8d8ff" x="90" y="10" width="10" height="10"/>
<rect fill="#a8d8ff" x="120" y="10" width="10" height="10"/>
<rect fill="#a8d8ff" x="90" y="20" width="10" height="10"/>
<rect fill="#a8d8ff" x="120" y="20" width="10" height="10"/>
<rect fill="#a8d8ff" x="90" y="30" width="10" height="10"/>
<rect fill="#a8d8ff" x="120" y="30" width="10" height="10"/>
<rect fill="#a8d8ff" x="100" y="40" width="10" height="10"/>
<rect fill="#a8d8ff" x="110" y="40" width="10" height="10"/>
<rect fill="#fff3a8" x="140" y="40" width="10" height="10"/>
<rect fill="#ff9e9e" x="170" y="0" width="10" height="10"/>
<rect fill="#ff9e9e" x="180" y="0" width="10" height="10"/>
<rect fill="#ff9e9e" x="160" y="10" width="10" height="10"/>
<rect fill="#ff9e9e" x="190" y="10" width="10" height="10"/>
<rect fill="#ff9e9e" x="160" y="20" width="10" height="10"/>
<rect fill="#ff9e9e" x="190" y="20" width="10" height="10"/>
<rect fill="#ff9e9e" x="160" y="30" width="10" height="10"/>
<rect fill="#ff9e9e" x="190" y="30" width="10" height="10"/>
<rect fill="#ff9e9e" x="170" y="40" width="10" height="10"/>
<rect fill="#ff9e9e" x="180" y="40" width="10" height="10"/>
<rect fill="#ff8cbf" x="210" y="40" width="10" height="10"/>
<rect fill="#a8d8ff" x="240" y="0" width="10" height="10"/>
<rect fill="#a8d8ff" x="230" y="10" width="10" height="10"/>
<rect fill="#a8d8ff" x="240" y="10" width="10" height="10"/>
<rect fill="#a8d8ff" x="240" y="20" width="10" height="10"/>
<rect fill="#a8d8ff" x="240" y="30" width="10" height="10"/>
<rect fill="#a8d8ff" x="230" y="40" width="10" height="10"/>
<rect fill="#a8d8ff" x="240" y="40" width="10" height="10"/>
<rect fill="#a8d8ff" x="250" y="40" width="10" height="10"/>
<rect fill="#fff3a8" x="280" y="0" width="10" height="10"/>
<rect fill="#fff3a8" x="290" y="0" width="10" height="10"/>
<rect fill="#fff3a8" x="300" y="0" width="10" height="10"/>
<rect fill="#fff3a8" x="270" y="10" width="10" height="10"/>
<rect fill="#fff3a8" x="270" y="20" width="10" height="10"/>
<rect fill="#fff3a8" x="280" y="20" width="10" height="10"/>
<rect fill="#fff3a8" x="290" y="20" width="10" height="10"/>
<rect fill="#fff3a8" x="270" y="30" width="10" height="10"/>
<rect fill="#fff3a8" x="300" y="30" width="10" height="10"/>
<rect fill="#fff3a8" x="280" y="40" width="10" height="10"/>
<rect fill="#fff3a8" x="290" y="40" width="10" height="10"/>
</svg>
