<svg xmlns="http://www.w3.org/2000/svg" width="427" height="35" viewBox="0 0 427 35" shape-rendering="crispEdges">
<rect fill="#ff8cbf" x="0" y="0" width="7" height="7"/>
<rect fill="#ff8cbf" x="28" y="0" width="7" height="7"/>
<rect fill="#ff8cbf" x="0" y="7" width="7" height="7"/>
<rect fill="#ff8cbf" x="28" y="7" width="7" height="7"/>
<rect fill="#ff8cbf" x="0" y="14" width="7" height="7"/>
<rect fill="#ff8cbf" x="14" y="14" width="7" height="7"/>
<rect fill="#ff8cbf" x="28" y="14" width="7" height="7"/>
<rect fill="#ff8cbf" x="0" y="21" width="7" height="7"/>
<rect fill="#ff8cbf" x="7" y="21" width="7" height="7"/>
<rect fill="#ff8cbf" x="21" y="21" width="7" height="7"/>
<rect fill="#ff8cbf" x="28" y="21" width="7" height="7"/>
<rect fill="#ff8cbf" x="0" y="28" width="7" height="7"/>
<rect fill="#ff8cbf" x="28" y="28" width="7" height="7"/>
<rect fill="#a8d8ff" x="42" y="0" width="7" height="7"/>
<rect fill="#a8d8ff" x="63" y="0" width="7" height="7"/>
<rect fill="#a8d8ff" x="42" y="7" width="7" height="7"/>
<rect fill="#a8d8ff" x="63" y="7" width="7" height="7"/>
<rect fill="#a8d8ff" x="42" y="14" width="7" height="7"/>
<rect fill="#a8d8ff" x="49" y="14" width="7" height="7"/>
<rect fill="#a8d8ff" x="56" y="14" width="7" height="7"/>
<rect fill="#a8d8ff" x="63" y="14" width="7" height="7"/>
<rect fill="#a8d8ff" x="42" y="21" width="7" height="7"/>
<rect fill="#a8d8ff" x="63" y="21" width="7" height="7"/>
<rect fill="#a8d8ff" x="42" y="28" width="7" height="7"/>
<rect fill="#a8d8ff" x="63" y="28" width="7" height="7"/>
<rect fill="#fff3a8" x="84" y="0" width="7" height="7"/>
<rect fill="#fff3a8" x="91" y="0" width="7" height="7"/>
<rect fill="#fff3a8" x="77" y="7" width="7" height="7"/>
<rect fill="#fff3a8" x="84" y="7" width="7" height="7"/>
<rect fill="#fff3a8" x="91" y="7" width="7" height="7"/>
<rect fill="#fff3a8" x="98" y="7" width="7" height="7"/>
<rect fill="#fff3a8" x="77" y="14" width="7" height="7"/>
<rect fill="#fff3a8" x="98" y="14" width="7" height="7"/>
<rect fill="#fff3a8" x="77" y="21" width="7" height="7"/>
<rect fill="#fff3a8" x="84" y="21" width="7" height="7"/>
<rect fill="#fff3a8" x="91" y="21" width="7" height="7"/>
<rect fill="#fff3a8" x="98" y="21" width="7" height="7"/>
<rect fill="#fff3a8" x="77" y="28" width="7" height="7"/>
<rect fill="#fff3a8" x="98" y="28" width="7" height="7"/>
<rect fill="#ff9e9e" x="112" y="0" width="7" height="7"/>
<rect fill="#ff9e9e" x="119" y="0" width="7" height="7"/>
<rect fill="#ff9e9e" x="126" y="0" width="7" height="7"/>
<rect fill="#ff9e9e" x="133" y="0" width="7" height="7"/>
<rect fill="#ff9e9e" x="140" y="0" width="7" height="7"/>
<rect fill="#ff9e9e" x="126" y="7" width="7" height="7"/>
<rect fill="#ff9e9e" x="126" y="14" width="7" height="7"/>
<rect fill="#ff9e9e" x="126" y="21" width="7" height="7"/>
<rect fill="#ff9e9e" x="126" y="28" width="7" height="7"/>
<rect fill="#ff8cbf" x="175" y="0" width="7" height="7"/>
<rect fill="#ff8cbf" x="182" y="0" width="7" height="7"/>
<rect fill="#ff8cbf" x="189" y="0" width="7" height="7"/>
<rect fill="#ff8cbf" x="182" y="7" width="7" height="7"/>
<rect fill="#ff8cbf" x="182" y="14" width="7" height="7"/>
<rect fill="#ff8cbf" x="182" y="21" width="7" height="7"/>
<rect fill="#ff8cbf" x="175" y="28" width="7" height="7"/>
<rect fill="#ff8cbf" x="182" y="28" width="7" height="7"/>
<rect fill="#ff8cbf" x="189" y="28" width="7" height="7"/>
<rect fill="#a8d8ff" x="210" y="0" width="7" height="7"/>
<rect fill="#a8d8ff" x="217" y="0" width="7" height="7"/>
<rect fill="#a8d8ff" x="224" y="0" width="7" height="7"/>
<rect fill="#a8d8ff" x="203" y="7" width="7" height="7"/>
<rect fill="#a8d8ff" x="210" y="14" width="7" height="7"/>
<rect fill="#a8d8ff" x="217" y="14" width="7" height="7"/>
<rect fill="#a8d8ff" x="224" y="21" width="7" height="7"/>
<rect fill="#a8d8ff" x="203" y="28" width="7" height="7"/>
<rect fill="#a8d8ff" x="210" y="28" width="7" height="7"/>
<rect fill="#a8d8ff" x="217" y="28" width="7" height="7"/>
<rect fill="#fff3a8" x="259" y="0" width="7" height="7"/>
<rect fill="#fff3a8" x="266" y="0" width="7" height="7"/>
<rect fill="#fff3a8" x="273" y="0" width="7" height="7"/>
<rect fill="#fff3a8" x="280" y="0" width="7" height="7"/>
<rect fill="#fff3a8" x="287" y="0" width="7" height="7"/>
<rect fill="#fff3a8" x="273" y="7" width="7" height="7"/>
<rect fill="#fff3a8" x="273" y="14" width="7" height="7"/>
<rect fill="#fff3a8" x="273" y="21" width="7" height="7"/>
<rect fill="#fff3a8" x="273" y="28" width="7" height="7"/>
<rect fill="#ff9e9e" x="301" y="0" width="7" height="7"/>
<rect fill="#ff9e9e" x="322" y="0" width="7" height="7"/>
<rect fill="#ff9e9e" x="301" y="7" width="7" height="7"/>
<rect fill="#ff9e9e" x="322" y="7" width="7" height="7"/>
<rect fill="#ff9e9e" x="301" y="14" width="7" height="7"/>
<rect fill="#ff9e9e" x="308" y="14" width="7" height="7"/>
<rect fill="#ff9e9e" x="315" y="14" width="7" height="7"/>
<rect fill="#ff9e9e" x="322" y="14" width="7" height="7"/>
<rect fill="#ff9e9e" x="301" y="21" width="7" height="7"/>
<rect fill="#ff9e9e" x="322" y="21" width="7" height="7"/>
<rect fill="#ff9e9e" x="301" y="28" width="7" height="7"/>
<rect fill="#ff9e9e" x="322" y="28" width="7" height="7"/>
<rect fill="#ff8cbf" x="336" y="0" width="7" height="7"/>
<rect fill="#ff8cbf" x="343" y="0" width="7" height="7"/>
<rect fill="#ff8cbf" x="350" y="0" width="7" height="7"/>
<rect fill="#ff8cbf" x="343" y="7" width="7" height="7"/>
<rect fill="#ff8cbf" x="343" y="14" width="7" height="7"/>
<rect fill="#ff8cbf" x="343" y="21" width="7" height="7"/>
<rect fill="#ff8cbf" x="336" y="28" width="7" height="7"/>
<rect fill="#ff8cbf" x="343" y="28" width="7" height="7"/>
<rect fill="#ff8cbf" x="350" y="28" width="7" height="7"/>
<rect fill="#a8d8ff" x="371" y="0" width="7" height="7"/>
<rect fill="#a8d8ff" x="378" y="0" width="7" height="7"/>
<rect fill="#a8d8ff" x="385" y="0" width="7" height="7"/>
<rect fill="#a8d8ff" x="364" y="7" width="7" height="7"/>
<rect fill="#a8d8ff" x="371" y="14" width="7" height="7"/>
<rect fill="#a8d8ff" x="378" y="14" width="7" height="7"/>
<rect fill="#a8d8ff" x="385" y="21" width="7" height="7"/>
<rect fill="#a8d8ff" x="364" y="28" width="7" height="7"/>
<rect fill="#a8d8ff" x="371" y="28" width="7" height="7"/>
<rect fill="#a8d8ff" x="378" y="28" width="7" height="7"/>
<rect fill="#fff3a8" x="406" y="0" width="7" height="7"/>
<rect fill="#fff3a8" x="413" y="0" width="7" height="7"/>
<rect fill="#fff3a8" x="399" y="7" width="7" height="7"/>
<rect fill="#fff3a8" x="420" y="7" width="7" height="7"/>
<rect fill="#fff3a8" x="413" y="14" width="7" height="7"/>
<rect fill="#fff3a8" x="413" y="28" width="7" height="7"/>
</svg>
