<svg xmlns="http://www.w3.org/2000/svg" width="402" height="30" viewBox="0 0 402 30" shape-rendering="crispEdges">
<rect fill="#ff8cbf" x="6" y="0" width="6" height="6"/>
<rect fill="#ff8cbf" x="12" y="0" width="6" height="6"/>
<rect fill="#ff8cbf" x="18" y="0" width="6" height="6"/>
<rect fill="#ff8cbf" x="0" y="6" width="6" height="6"/>
<rect fill="#ff8cbf" x="6" y="12" width="6" height="6"/>
<rect fill="#ff8cbf" x="12" y="12" width="6" height="6"/>
<rect fill="#ff8cbf" x="18" y="18" width="6" height="6"/>
<rect fill="#ff8cbf" x="0" y="24" width="6" height="6"/>
<rect fill="#ff8cbf" x="6" y="24" width="6" height="6"/>
<rect fill="#ff8cbf" x="12" y="24" width="6" height="6"/>
<rect fill="#a8d8ff" x="30" y="0" width="6" height="6"/>
<rect fill="#a8d8ff" x="36" y="0" width="6" height="6"/>
<rect fill="#a8d8ff" x="42" y="0" width="6" height="6"/>
<rect fill="#a8d8ff" x="48" y="0" width="6" height="6"/>
<rect fill="#a8d8ff" x="54" y="0" width="6" height="6"/>
<rect fill="#a8d8ff" x="42" y="6" width="6" height="6"/>
<rect fill="#a8d8ff" x="42" y="12" width="6" height="6"/>
<rect fill="#a8d8ff" x="42" y="18" width="6" height="6"/>
<rect fill="#a8d8ff" x="42" y="24" width="6" height="6"/>
<rect fill="#fff3a8" x="66" y="0" width="6" height="6"/>
<rect fill="#fff3a8" x="72" y="0" width="6" height="6"/>
<rect fill="#fff3a8" x="78" y="0" width="6" height="6"/>
<rect fill="#fff3a8" x="84" y="0" width="6" height="6"/>
<rect fill="#fff3a8" x="66" y="6" width="6" height="6"/>
<rect fill="#fff3a8" x="66" y="12" width="6" height="6"/>
<rect fill="#fff3a8" x="72" y="12" width="6" height="6"/>
<rect fill="#fff3a8" x="78" y="12" width="6" height="6"/>
<rect fill="#fff3a8" x="66" y="18" width="6" height="6"/>
<rect fill="#fff3a8" x="66" y="24" width="6" height="6"/>
<rect fill="#fff3a8" x="72" y="24" width="6" height="6"/>
<rect fill="#fff3a8" x="78" y="24" width="6" height="6"/>
<rect fill="#fff3a8" x="84" y="24" width="6" height="6"/>
<rect fill="#ff9e9e" x="96" y="0" width="6" height="6"/>
<rect fill="#ff9e9e" x="102" y="0" width="6" height="6"/>
<rect fill="#ff9e9e" x="108" y="0" width="6" height="6"/>
<rect fill="#ff9e9e" x="96" y="6" width="6" height="6"/>
<rect fill="#ff9e9e" x="114" y="6" width="6" height="6"/>
<rect fill="#ff9e9e" x="96" y="12" width="6" height="6"/>
<rect fill="#ff9e9e" x="102" y="12" width="6" height="6"/>
<rect fill="#ff9e9e" x="108" y="12" width="6" height="6"/>
<rect fill="#ff9e9e" x="96" y="18" width="6" height="6"/>
<rect fill="#ff9e9e" x="96" y="24" width="6" height="6"/>
<rect fill="#ff8cbf" x="144" y="0" width="6" height="6"/>
<rect fill="#ff8cbf" x="150" y="0" width="6" height="6"/>
<rect fill="#ff8cbf" x="156" y="0" width="6" height="6"/>
<rect fill="#ff8cbf" x="162" y="0" width="6" height="6"/>
<rect fill="#ff8cbf" x="144" y="6" width="6" height="6"/>
<rect fill="#ff8cbf" x="144" y="12" width="6" height="6"/>
<rect fill="#ff8cbf" x="150" y="12" width="6" height="6"/>
<rect fill="#ff8cbf" x="156" y="12" width="6" height="6"/>
<rect fill="#ff8cbf" x="162" y="18" width="6" height="6"/>
<rect fill="#ff8cbf" x="144" y="24" width="6" height="6"/>
<rect fill="#ff8cbf" x="150" y="24" width="6" height="6"/>
<rect fill="#ff8cbf" x="156" y="24" width="6" height="6"/>
<rect fill="#a8d8ff" x="174" y="12" width="6" height="6"/>
<rect fill="#a8d8ff" x="174" y="24" width="6" height="6"/>
<rect fill="#fff3a8" x="210" y="0" width="6" height="6"/>
<rect fill="#fff3a8" x="216" y="0" width="6" height="6"/>
<rect fill="#fff3a8" x="204" y="6" width="6" height="6"/>
<rect fill="#fff3a8" x="210" y="6" width="6" height="6"/>
<rect fill="#fff3a8" x="216" y="6" width="6" height="6"/>
<rect fill="#fff3a8" x="222" y="6" width="6" height="6"/>
<rect fill="#fff3a8" x="204" y="12" width="6" height="6"/>
<rect fill="#fff3a8" x="222" y="12" width="6" height="6"/>
<rect fill="#fff3a8" x="204" y="18" width="6" height="6"/>
<rect fill="#fff3a8" x="210" y="18" width="6" height="6"/>
<rect fill="#fff3a8" x="216" y="18" width="6" height="6"/>
<rect fill="#fff3a8" x="222" y="18" width="6" height="6"/>
<rect fill="#fff3a8" x="204" y="24" width="6" height="6"/>
<rect fill="#fff3a8" x="222" y="24" width="6" height="6"/>
<rect fill="#ff9e9e" x="252" y="0" width="6" height="6"/>
<rect fill="#ff9e9e" x="258" y="0" width="6" height="6"/>
<rect fill="#ff9e9e" x="264" y="0" width="6" height="6"/>
<rect fill="#ff9e9e" x="270" y="0" width="6" height="6"/>
<rect fill="#ff9e9e" x="276" y="0" width="6" height="6"/>
<rect fill="#ff9e9e" x="264" y="6" width="6" height="6"/>
<rect fill="#ff9e9e" x="264" y="12" width="6" height="6"/>
<rect fill="#ff9e9e" x="264" y="18" width="6" height="6"/>
<rect fill="#ff9e9e" x="264" y="24" width="6" height="6"/>
<rect fill="#ff8cbf" x="288" y="0" width="6" height="6"/>
<rect fill="#ff8cbf" x="294" y="0" width="6" height="6"/>
<rect fill="#ff8cbf" x="300" y="0" width="6" height="6"/>
<rect fill="#ff8cbf" x="294" y="6" width="6" height="6"/>
<rect fill="#ff8cbf" x="294" y="12" width="6" height="6"/>
<rect fill="#ff8cbf" x="294" y="18" width="6" height="6"/>
<rect fill="#ff8cbf" x="288" y="24" width="6" height="6"/>
<rect fill="#ff8cbf" x="294" y="24" width="6" height="6"/>
<rect fill="#ff8cbf" x="300" y="24" width="6" height="6"/>
<rect fill="#a8d8ff" x="312" y="0" width="6" height="6"/>
<rect fill="#a8d8ff" x="336" y="0" width="6" height="6"/>
<rect fill="#a8d8ff" x="312" y="6" width="6" height="6"/>
<rect fill="#a8d8ff" x="318" y="6" width="6" height="6"/>
<rect fill="#a8d8ff" x="330" y="6" width="6" height="6"/>
<rect fill="#a8d8ff" x="336" y="6" width="6" height="6"/>
<rect fill="#a8d8ff" x="312" y="12" width="6" height="6"/>
<rect fill="#a8d8ff" x="324" y="12" width="6" height="6"/>
<rect fill="#a8d8ff" x="336" y="12" width="6" height="6"/>
<rect fill="#a8d8ff" x="312" y="18" width="6" height="6"/>
<rect fill="#a8d8ff" x="336" y="18" width="6" height="6"/>
<rect fill="#a8d8ff" x="312" y="24" width="6" height="6"/>
<rect fill="#a8d8ff" x="336" y="24" width="6" height="6"/>
<rect fill="#fff3a8" x="348" y="0" width="6" height="6"/>
<rect fill="#fff3a8" x="354" y="0" width="6" height="6"/>
<rect fill="#fff3a8" x="360" y="0" width="6" height="6"/>
<rect fill="#fff3a8" x="366" y="0" width="6" height="6"/>
<rect fill="#fff3a8" x="348" y="6" width="6" height="6"/>
<rect fill="#fff3a8" x="348" y="12" width="6" height="6"/>
<rect fill="#fff3a8" x="354" y="12" width="6" height="6"/>
<rect fill="#fff3a8" x="360" y="12" width="6" height="6"/>
<rect fill="#fff3a8" x="348" y="18" width="6" height="6"/>
<rect fill="#fff3a8" x="348" y="24" width="6" height="6"/>
<rect fill="#fff3a8" x="354" y="24" width="6" height="6"/>
<rect fill="#fff3a8" x="360" y="24" width="6" height="6"/>
<rect fill="#fff3a8" x="366" y="24" width="6" height="6"/>
<rect fill="#ff9e9e" x="378" y="0" width="6" height="6"/>
<rect fill="#ff9e9e" x="384" y="0" width="6" height="6"/>
<rect fill="#ff9e9e" x="390" y="0" width="6" height="6"/>
<rect fill="#ff9e9e" x="378" y="6" width="6" height="6"/>
<rect fill="#ff9e9e" x="396" y="6" width="6" height="6"/>
<rect fill="#ff9e9e" x="378" y="12" width="6" height="6"/>
<rect fill="#ff9e9e" x="384" y="12" width="6" height="6"/>
<rect fill="#ff9e9e" x="390" y="12" width="6" height="6"/>
<rect fill="#ff9e9e" x="378" y="18" width="6" height="6"/>
<rect fill="#ff9e9e" x="390" y="18" width="6" height="6"/>
<rect fill="#ff9e9e" x="378" y="24" width="6" height="6"/>
<rect fill="#ff9e9e" x="396" y="24" width="6" height="6"/>
</svg>
