<svg xmlns="http://www.w3.org/2000/svg" width="980" height="548" viewBox="0 0 980 548" shape-rendering="crispEdges" font-family="'JetBrains Mono',ui-monospace,SFMono-Regular,Menlo,Consolas,monospace">
<rect width="980" height="548" fill="#0b0f14"/>
<rect x="1" y="1" width="978" height="546" fill="#141c26" stroke="#22303f" stroke-width="2"/>
<rect x="1" y="1" width="978" height="6" fill="#ff8cbf"/>
<rect x="326" y="1" width="326" height="6" fill="#a8d8ff"/>
<rect x="653" y="1" width="325" height="6" fill="#fff3a8"/>
<text x="32" y="50" font-size="22" font-weight="700" fill="#d7e0ea">EVERY PAGE, FASTER</text>
<text x="32" y="74" font-size="13" fill="#8497ab">page switch on a revisit, median milliseconds &#183; first profiler run against the latest</text>
<text x="32" y="122" font-size="13" font-weight="700" fill="#d7e0ea">COMPONENTS</text>
<rect x="160" y="105" width="10" height="9" fill="#a8d8ff" opacity="0.35"/><rect x="172" y="105" width="10" height="9" fill="#a8d8ff" opacity="0.35"/><rect x="184" y="105" width="10" height="9" fill="#a8d8ff" opacity="0.35"/><rect x="196" y="105" width="10" height="9" fill="#a8d8ff" opacity="0.35"/><rect x="208" y="105" width="10" height="9" fill="#a8d8ff" opacity="0.35"/><rect x="220" y="105" width="10" height="9" fill="#a8d8ff" opacity="0.35"/><rect x="232" y="105" width="10" height="9" fill="#a8d8ff" opacity="0.35"/><rect x="244" y="105" width="10" height="9" fill="#a8d8ff" opacity="0.35"/><rect x="256" y="105" width="10" height="9" fill="#a8d8ff" opacity="0.35"/><rect x="268" y="105" width="10" height="9" fill="#a8d8ff" opacity="0.35"/><rect x="280" y="105" width="10" height="9" fill="#a8d8ff" opacity="0.35"/><rect x="292" y="105" width="10" height="9" fill="#a8d8ff" opacity="0.35"/><rect x="304" y="105" width="10" height="9" fill="#a8d8ff" opacity="0.35"/><rect x="316" y="105" width="10" height="9" fill="#a8d8ff" opacity="0.35"/><rect x="328" y="105" width="10" height="9" fill="#a8d8ff" opacity="0.35"/><rect x="340" y="105" width="10" height="9" fill="#a8d8ff" opacity="0.35"/><rect x="352" y="105" width="10" height="9" fill="#a8d8ff" opacity="0.35"/><rect x="364" y="105" width="10" height="9" fill="#a8d8ff" opacity="0.35"/><rect x="376" y="105" width="10" height="9" fill="#a8d8ff" opacity="0.35"/><rect x="388" y="105" width="10" height="9" fill="#a8d8ff" opacity="0.35"/><rect x="400" y="105" width="10" height="9" fill="#a8d8ff" opacity="0.35"/><rect x="412" y="105" width="10" height="9" fill="#a8d8ff" opacity="0.35"/><rect x="424" y="105" width="10" height="9" fill="#a8d8ff" opacity="0.35"/><rect x="436" y="105" width="10" height="9" fill="#a8d8ff" opacity="0.35"/><rect x="448" y="105" width="10" height="9" fill="#a8d8ff" opacity="0.35"/><rect x="460" y="105" width="10" height="9" fill="#a8d8ff" opacity="0.35"/><rect x="472" y="105" width="10" height="9" fill="#a8d8ff" opacity="0.35"/><rect x="484" y="105" width="10" height="9" fill="#a8d8ff" opacity="0.35"/><rect x="496" y="105" width="10" height="9" fill="#a8d8ff" opacity="0.35"/><rect x="508" y="105" width="10" height="9" fill="#a8d8ff" opacity="0.35"/><rect x="520" y="105" width="10" height="9" fill="#a8d8ff" opacity="0.35"/><rect x="532" y="105" width="10" height="9" fill="#a8d8ff" opacity="0.35"/><rect x="544" y="105" width="10" height="9" fill="#a8d8ff" opacity="0.35"/><rect x="556" y="105" width="10" height="9" fill="#a8d8ff" opacity="0.35"/><rect x="568" y="105" width="10" height="9" fill="#a8d8ff" opacity="0.35"/><rect x="580" y="105" width="10" height="9" fill="#a8d8ff" opacity="0.35"/><rect x="592" y="105" width="10" height="9" fill="#a8d8ff" opacity="0.35"/><rect x="604" y="105" width="10" height="9" fill="#a8d8ff" opacity="0.35"/><rect x="616" y="105" width="10" height="9" fill="#a8d8ff" opacity="0.35"/><rect x="628" y="105" width="10" height="9" fill="#a8d8ff" opacity="0.35"/><rect x="640" y="105" width="10" height="9" fill="#a8d8ff" opacity="0.35"/><rect x="652" y="105" width="10" height="9" fill="#a8d8ff" opacity="0.35"/><rect x="664" y="105" width="10" height="9" fill="#a8d8ff" opacity="0.35"/><rect x="676" y="105" width="10" height="9" fill="#a8d8ff" opacity="0.35"/>
<rect x="160" y="117" width="10" height="11" fill="#ff8cbf" opacity="1.0"/><rect x="172" y="117" width="10" height="11" fill="#ff8cbf" opacity="1.0"/><rect x="184" y="117" width="10" height="11" fill="#ff8cbf" opacity="1.0"/><rect x="196" y="117" width="10" height="11" fill="#ff8cbf" opacity="1.0"/><rect x="208" y="117" width="10" height="11" fill="#ff8cbf" opacity="1.0"/><rect x="220" y="117" width="10" height="11" fill="#ff8cbf" opacity="1.0"/><rect x="232" y="117" width="10" height="11" fill="#ff8cbf" opacity="1.0"/><rect x="244" y="117" width="10" height="11" fill="#ff8cbf" opacity="1.0"/><rect x="256" y="117" width="10" height="11" fill="#ff8cbf" opacity="1.0"/><rect x="268" y="117" width="10" height="11" fill="#ff8cbf" opacity="1.0"/><rect x="280" y="117" width="10" height="11" fill="#ff8cbf" opacity="1.0"/><rect x="292" y="117" width="10" height="11" fill="#ff8cbf" opacity="1.0"/><rect x="304" y="117" width="10" height="11" fill="#ff8cbf" opacity="1.0"/><rect x="316" y="117" width="10" height="11" fill="#ff8cbf" opacity="1.0"/><rect x="328" y="117" width="10" height="11" fill="#ff8cbf" opacity="1.0"/><rect x="340" y="117" width="10" height="11" fill="#ff8cbf" opacity="1.0"/><rect x="352" y="117" width="10" height="11" fill="#ff8cbf" opacity="1.0"/><rect x="364" y="117" width="10" height="11" fill="#ff8cbf" opacity="1.0"/><rect x="376" y="117" width="10" height="11" fill="#ff8cbf" opacity="1.0"/>
<text x="704" y="123" font-size="13" fill="#8497ab">618 &#8594; <tspan fill="#ff8cbf" font-weight="700">260 ms</tspan></text>
<text x="32" y="160" font-size="13" font-weight="700" fill="#d7e0ea">DOCS</text>
<rect x="160" y="143" width="10" height="9" fill="#a8d8ff" opacity="0.35"/><rect x="172" y="143" width="10" height="9" fill="#a8d8ff" opacity="0.35"/><rect x="184" y="143" width="10" height="9" fill="#a8d8ff" opacity="0.35"/><rect x="196" y="143" width="10" height="9" fill="#a8d8ff" opacity="0.35"/><rect x="208" y="143" width="10" height="9" fill="#a8d8ff" opacity="0.35"/><rect x="220" y="143" width="10" height="9" fill="#a8d8ff" opacity="0.35"/><rect x="232" y="143" width="10" height="9" fill="#a8d8ff" opacity="0.35"/><rect x="244" y="143" width="10" height="9" fill="#a8d8ff" opacity="0.35"/><rect x="256" y="143" width="10" height="9" fill="#a8d8ff" opacity="0.35"/><rect x="268" y="143" width="10" height="9" fill="#a8d8ff" opacity="0.35"/><rect x="280" y="143" width="10" height="9" fill="#a8d8ff" opacity="0.35"/><rect x="292" y="143" width="10" height="9" fill="#a8d8ff" opacity="0.35"/><rect x="304" y="143" width="10" height="9" fill="#a8d8ff" opacity="0.35"/><rect x="316" y="143" width="10" height="9" fill="#a8d8ff" opacity="0.35"/><rect x="328" y="143" width="10" height="9" fill="#a8d8ff" opacity="0.35"/><rect x="340" y="143" width="10" height="9" fill="#a8d8ff" opacity="0.35"/><rect x="352" y="143" width="10" height="9" fill="#a8d8ff" opacity="0.35"/><rect x="364" y="143" width="10" height="9" fill="#a8d8ff" opacity="0.35"/><rect x="376" y="143" width="10" height="9" fill="#a8d8ff" opacity="0.35"/><rect x="388" y="143" width="10" height="9" fill="#a8d8ff" opacity="0.35"/><rect x="400" y="143" width="10" height="9" fill="#a8d8ff" opacity="0.35"/><rect x="412" y="143" width="10" height="9" fill="#a8d8ff" opacity="0.35"/><rect x="424" y="143" width="10" height="9" fill="#a8d8ff" opacity="0.35"/><rect x="436" y="143" width="10" height="9" fill="#a8d8ff" opacity="0.35"/><rect x="448" y="143" width="10" height="9" fill="#a8d8ff" opacity="0.35"/><rect x="460" y="143" width="10" height="9" fill="#a8d8ff" opacity="0.35"/><rect x="472" y="143" width="10" height="9" fill="#a8d8ff" opacity="0.35"/><rect x="484" y="143" width="10" height="9" fill="#a8d8ff" opacity="0.35"/><rect x="496" y="143" width="10" height="9" fill="#a8d8ff" opacity="0.35"/><rect x="508" y="143" width="10" height="9" fill="#a8d8ff" opacity="0.35"/><rect x="520" y="143" width="10" height="9" fill="#a8d8ff" opacity="0.35"/><rect x="532" y="143" width="10" height="9" fill="#a8d8ff" opacity="0.35"/><rect x="544" y="143" width="10" height="9" fill="#a8d8ff" opacity="0.35"/><rect x="556" y="143" width="10" height="9" fill="#a8d8ff" opacity="0.35"/><rect x="568" y="143" width="10" height="9" fill="#a8d8ff" opacity="0.35"/><rect x="580" y="143" width="10" height="9" fill="#a8d8ff" opacity="0.35"/><rect x="592" y="143" width="10" height="9" fill="#a8d8ff" opacity="0.35"/><rect x="604" y="143" width="10" height="9" fill="#a8d8ff" opacity="0.35"/>
<rect x="160" y="155" width="10" height="11" fill="#ff8cbf" opacity="1.0"/><rect x="172" y="155" width="10" height="11" fill="#ff8cbf" opacity="1.0"/><rect x="184" y="155" width="10" height="11" fill="#ff8cbf" opacity="1.0"/><rect x="196" y="155" width="10" height="11" fill="#ff8cbf" opacity="1.0"/><rect x="208" y="155" width="10" height="11" fill="#ff8cbf" opacity="1.0"/><rect x="220" y="155" width="10" height="11" fill="#ff8cbf" opacity="1.0"/><rect x="232" y="155" width="10" height="11" fill="#ff8cbf" opacity="1.0"/><rect x="244" y="155" width="10" height="11" fill="#ff8cbf" opacity="1.0"/><rect x="256" y="155" width="10" height="11" fill="#ff8cbf" opacity="1.0"/><rect x="268" y="155" width="10" height="11" fill="#ff8cbf" opacity="1.0"/><rect x="280" y="155" width="10" height="11" fill="#ff8cbf" opacity="1.0"/><rect x="292" y="155" width="10" height="11" fill="#ff8cbf" opacity="1.0"/><rect x="304" y="155" width="10" height="11" fill="#ff8cbf" opacity="1.0"/><rect x="316" y="155" width="10" height="11" fill="#ff8cbf" opacity="1.0"/><rect x="328" y="155" width="10" height="11" fill="#ff8cbf" opacity="1.0"/><rect x="340" y="155" width="10" height="11" fill="#ff8cbf" opacity="1.0"/><rect x="352" y="155" width="10" height="11" fill="#ff8cbf" opacity="1.0"/>
<text x="704" y="161" font-size="13" fill="#8497ab">532 &#8594; <tspan fill="#ff8cbf" font-weight="700">244 ms</tspan></text>
<text x="32" y="198" font-size="13" font-weight="700" fill="#d7e0ea">SCROLLING</text>
<rect x="160" y="181" width="10" height="9" fill="#a8d8ff" opacity="0.35"/><rect x="172" y="181" width="10" height="9" fill="#a8d8ff" opacity="0.35"/><rect x="184" y="181" width="10" height="9" fill="#a8d8ff" opacity="0.35"/><rect x="196" y="181" width="10" height="9" fill="#a8d8ff" opacity="0.35"/><rect x="208" y="181" width="10" height="9" fill="#a8d8ff" opacity="0.35"/><rect x="220" y="181" width="10" height="9" fill="#a8d8ff" opacity="0.35"/><rect x="232" y="181" width="10" height="9" fill="#a8d8ff" opacity="0.35"/><rect x="244" y="181" width="10" height="9" fill="#a8d8ff" opacity="0.35"/><rect x="256" y="181" width="10" height="9" fill="#a8d8ff" opacity="0.35"/><rect x="268" y="181" width="10" height="9" fill="#a8d8ff" opacity="0.35"/><rect x="280" y="181" width="10" height="9" fill="#a8d8ff" opacity="0.35"/><rect x="292" y="181" width="10" height="9" fill="#a8d8ff" opacity="0.35"/><rect x="304" y="181" width="10" height="9" fill="#a8d8ff" opacity="0.35"/><rect x="316" y="181" width="10" height="9" fill="#a8d8ff" opacity="0.35"/><rect x="328" y="181" width="10" height="9" fill="#a8d8ff" opacity="0.35"/><rect x="340" y="181" width="10" height="9" fill="#a8d8ff" opacity="0.35"/><rect x="352" y="181" width="10" height="9" fill="#a8d8ff" opacity="0.35"/><rect x="364" y="181" width="10" height="9" fill="#a8d8ff" opacity="0.35"/><rect x="376" y="181" width="10" height="9" fill="#a8d8ff" opacity="0.35"/><rect x="388" y="181" width="10" height="9" fill="#a8d8ff" opacity="0.35"/><rect x="400" y="181" width="10" height="9" fill="#a8d8ff" opacity="0.35"/><rect x="412" y="181" width="10" height="9" fill="#a8d8ff" opacity="0.35"/><rect x="424" y="181" width="10" height="9" fill="#a8d8ff" opacity="0.35"/><rect x="436" y="181" width="10" height="9" fill="#a8d8ff" opacity="0.35"/><rect x="448" y="181" width="10" height="9" fill="#a8d8ff" opacity="0.35"/><rect x="460" y="181" width="10" height="9" fill="#a8d8ff" opacity="0.35"/><rect x="472" y="181" width="10" height="9" fill="#a8d8ff" opacity="0.35"/><rect x="484" y="181" width="10" height="9" fill="#a8d8ff" opacity="0.35"/><rect x="496" y="181" width="10" height="9" fill="#a8d8ff" opacity="0.35"/><rect x="508" y="181" width="10" height="9" fill="#a8d8ff" opacity="0.35"/><rect x="520" y="181" width="10" height="9" fill="#a8d8ff" opacity="0.35"/><rect x="532" y="181" width="10" height="9" fill="#a8d8ff" opacity="0.35"/><rect x="544" y="181" width="10" height="9" fill="#a8d8ff" opacity="0.35"/><rect x="556" y="181" width="10" height="9" fill="#a8d8ff" opacity="0.35"/><rect x="568" y="181" width="10" height="9" fill="#a8d8ff" opacity="0.35"/>
<rect x="160" y="193" width="10" height="11" fill="#ff8cbf" opacity="1.0"/><rect x="172" y="193" width="10" height="11" fill="#ff8cbf" opacity="1.0"/><rect x="184" y="193" width="10" height="11" fill="#ff8cbf" opacity="1.0"/><rect x="196" y="193" width="10" height="11" fill="#ff8cbf" opacity="1.0"/><rect x="208" y="193" width="10" height="11" fill="#ff8cbf" opacity="1.0"/><rect x="220" y="193" width="10" height="11" fill="#ff8cbf" opacity="1.0"/><rect x="232" y="193" width="10" height="11" fill="#ff8cbf" opacity="1.0"/><rect x="244" y="193" width="10" height="11" fill="#ff8cbf" opacity="1.0"/><rect x="256" y="193" width="10" height="11" fill="#ff8cbf" opacity="1.0"/><rect x="268" y="193" width="10" height="11" fill="#ff8cbf" opacity="1.0"/><rect x="280" y="193" width="10" height="11" fill="#ff8cbf" opacity="1.0"/><rect x="292" y="193" width="10" height="11" fill="#ff8cbf" opacity="1.0"/><rect x="304" y="193" width="10" height="11" fill="#ff8cbf" opacity="1.0"/><rect x="316" y="193" width="10" height="11" fill="#ff8cbf" opacity="1.0"/><rect x="328" y="193" width="10" height="11" fill="#ff8cbf" opacity="1.0"/><rect x="340" y="193" width="10" height="11" fill="#ff8cbf" opacity="1.0"/><rect x="352" y="193" width="10" height="11" fill="#ff8cbf" opacity="1.0"/><rect x="364" y="193" width="10" height="11" fill="#ff8cbf" opacity="1.0"/><rect x="376" y="193" width="10" height="11" fill="#ff8cbf" opacity="1.0"/><rect x="388" y="193" width="10" height="11" fill="#ff8cbf" opacity="1.0"/><rect x="400" y="193" width="10" height="11" fill="#ff8cbf" opacity="1.0"/><rect x="412" y="193" width="10" height="11" fill="#ff8cbf" opacity="1.0"/>
<text x="704" y="199" font-size="13" fill="#8497ab">488 &#8594; <tspan fill="#ff8cbf" font-weight="700">314 ms</tspan></text>
<text x="32" y="236" font-size="13" font-weight="700" fill="#d7e0ea">MONITOR</text>
<rect x="160" y="219" width="10" height="9" fill="#a8d8ff" opacity="0.35"/><rect x="172" y="219" width="10" height="9" fill="#a8d8ff" opacity="0.35"/><rect x="184" y="219" width="10" height="9" fill="#a8d8ff" opacity="0.35"/><rect x="196" y="219" width="10" height="9" fill="#a8d8ff" opacity="0.35"/><rect x="208" y="219" width="10" height="9" fill="#a8d8ff" opacity="0.35"/><rect x="220" y="219" width="10" height="9" fill="#a8d8ff" opacity="0.35"/><rect x="232" y="219" width="10" height="9" fill="#a8d8ff" opacity="0.35"/><rect x="244" y="219" width="10" height="9" fill="#a8d8ff" opacity="0.35"/><rect x="256" y="219" width="10" height="9" fill="#a8d8ff" opacity="0.35"/><rect x="268" y="219" width="10" height="9" fill="#a8d8ff" opacity="0.35"/><rect x="280" y="219" width="10" height="9" fill="#a8d8ff" opacity="0.35"/><rect x="292" y="219" width="10" height="9" fill="#a8d8ff" opacity="0.35"/><rect x="304" y="219" width="10" height="9" fill="#a8d8ff" opacity="0.35"/><rect x="316" y="219" width="10" height="9" fill="#a8d8ff" opacity="0.35"/><rect x="328" y="219" width="10" height="9" fill="#a8d8ff" opacity="0.35"/><rect x="340" y="219" width="10" height="9" fill="#a8d8ff" opacity="0.35"/><rect x="352" y="219" width="10" height="9" fill="#a8d8ff" opacity="0.35"/><rect x="364" y="219" width="10" height="9" fill="#a8d8ff" opacity="0.35"/><rect x="376" y="219" width="10" height="9" fill="#a8d8ff" opacity="0.35"/><rect x="388" y="219" width="10" height="9" fill="#a8d8ff" opacity="0.35"/><rect x="400" y="219" width="10" height="9" fill="#a8d8ff" opacity="0.35"/><rect x="412" y="219" width="10" height="9" fill="#a8d8ff" opacity="0.35"/><rect x="424" y="219" width="10" height="9" fill="#a8d8ff" opacity="0.35"/><rect x="436" y="219" width="10" height="9" fill="#a8d8ff" opacity="0.35"/><rect x="448" y="219" width="10" height="9" fill="#a8d8ff" opacity="0.35"/><rect x="460" y="219" width="10" height="9" fill="#a8d8ff" opacity="0.35"/><rect x="472" y="219" width="10" height="9" fill="#a8d8ff" opacity="0.35"/><rect x="484" y="219" width="10" height="9" fill="#a8d8ff" opacity="0.35"/><rect x="496" y="219" width="10" height="9" fill="#a8d8ff" opacity="0.35"/><rect x="508" y="219" width="10" height="9" fill="#a8d8ff" opacity="0.35"/><rect x="520" y="219" width="10" height="9" fill="#a8d8ff" opacity="0.35"/><rect x="532" y="219" width="10" height="9" fill="#a8d8ff" opacity="0.35"/><rect x="544" y="219" width="10" height="9" fill="#a8d8ff" opacity="0.35"/><rect x="556" y="219" width="10" height="9" fill="#a8d8ff" opacity="0.35"/>
<rect x="160" y="231" width="10" height="11" fill="#ff8cbf" opacity="1.0"/><rect x="172" y="231" width="10" height="11" fill="#ff8cbf" opacity="1.0"/><rect x="184" y="231" width="10" height="11" fill="#ff8cbf" opacity="1.0"/><rect x="196" y="231" width="10" height="11" fill="#ff8cbf" opacity="1.0"/><rect x="208" y="231" width="10" height="11" fill="#ff8cbf" opacity="1.0"/><rect x="220" y="231" width="10" height="11" fill="#ff8cbf" opacity="1.0"/><rect x="232" y="231" width="10" height="11" fill="#ff8cbf" opacity="1.0"/><rect x="244" y="231" width="10" height="11" fill="#ff8cbf" opacity="1.0"/><rect x="256" y="231" width="10" height="11" fill="#ff8cbf" opacity="1.0"/><rect x="268" y="231" width="10" height="11" fill="#ff8cbf" opacity="1.0"/><rect x="280" y="231" width="10" height="11" fill="#ff8cbf" opacity="1.0"/><rect x="292" y="231" width="10" height="11" fill="#ff8cbf" opacity="1.0"/><rect x="304" y="231" width="10" height="11" fill="#ff8cbf" opacity="1.0"/><rect x="316" y="231" width="10" height="11" fill="#ff8cbf" opacity="1.0"/><rect x="328" y="231" width="10" height="11" fill="#ff8cbf" opacity="1.0"/><rect x="340" y="231" width="10" height="11" fill="#ff8cbf" opacity="1.0"/><rect x="352" y="231" width="10" height="11" fill="#ff8cbf" opacity="1.0"/><rect x="364" y="231" width="10" height="11" fill="#ff8cbf" opacity="1.0"/><rect x="376" y="231" width="10" height="11" fill="#ff8cbf" opacity="1.0"/><rect x="388" y="231" width="10" height="11" fill="#ff8cbf" opacity="1.0"/>
<text x="704" y="237" font-size="13" fill="#8497ab">472 &#8594; <tspan fill="#ff8cbf" font-weight="700">274 ms</tspan></text>
<text x="32" y="274" font-size="13" font-weight="700" fill="#d7e0ea">SETTINGS</text>
<rect x="160" y="257" width="10" height="9" fill="#a8d8ff" opacity="0.35"/><rect x="172" y="257" width="10" height="9" fill="#a8d8ff" opacity="0.35"/><rect x="184" y="257" width="10" height="9" fill="#a8d8ff" opacity="0.35"/><rect x="196" y="257" width="10" height="9" fill="#a8d8ff" opacity="0.35"/><rect x="208" y="257" width="10" height="9" fill="#a8d8ff" opacity="0.35"/><rect x="220" y="257" width="10" height="9" fill="#a8d8ff" opacity="0.35"/><rect x="232" y="257" width="10" height="9" fill="#a8d8ff" opacity="0.35"/><rect x="244" y="257" width="10" height="9" fill="#a8d8ff" opacity="0.35"/><rect x="256" y="257" width="10" height="9" fill="#a8d8ff" opacity="0.35"/><rect x="268" y="257" width="10" height="9" fill="#a8d8ff" opacity="0.35"/><rect x="280" y="257" width="10" height="9" fill="#a8d8ff" opacity="0.35"/><rect x="292" y="257" width="10" height="9" fill="#a8d8ff" opacity="0.35"/><rect x="304" y="257" width="10" height="9" fill="#a8d8ff" opacity="0.35"/><rect x="316" y="257" width="10" height="9" fill="#a8d8ff" opacity="0.35"/><rect x="328" y="257" width="10" height="9" fill="#a8d8ff" opacity="0.35"/><rect x="340" y="257" width="10" height="9" fill="#a8d8ff" opacity="0.35"/><rect x="352" y="257" width="10" height="9" fill="#a8d8ff" opacity="0.35"/><rect x="364" y="257" width="10" height="9" fill="#a8d8ff" opacity="0.35"/><rect x="376" y="257" width="10" height="9" fill="#a8d8ff" opacity="0.35"/><rect x="388" y="257" width="10" height="9" fill="#a8d8ff" opacity="0.35"/><rect x="400" y="257" width="10" height="9" fill="#a8d8ff" opacity="0.35"/><rect x="412" y="257" width="10" height="9" fill="#a8d8ff" opacity="0.35"/><rect x="424" y="257" width="10" height="9" fill="#a8d8ff" opacity="0.35"/><rect x="436" y="257" width="10" height="9" fill="#a8d8ff" opacity="0.35"/><rect x="448" y="257" width="10" height="9" fill="#a8d8ff" opacity="0.35"/><rect x="460" y="257" width="10" height="9" fill="#a8d8ff" opacity="0.35"/>
<rect x="160" y="269" width="10" height="11" fill="#ff8cbf" opacity="1.0"/><rect x="172" y="269" width="10" height="11" fill="#ff8cbf" opacity="1.0"/><rect x="184" y="269" width="10" height="11" fill="#ff8cbf" opacity="1.0"/><rect x="196" y="269" width="10" height="11" fill="#ff8cbf" opacity="1.0"/><rect x="208" y="269" width="10" height="11" fill="#ff8cbf" opacity="1.0"/><rect x="220" y="269" width="10" height="11" fill="#ff8cbf" opacity="1.0"/><rect x="232" y="269" width="10" height="11" fill="#ff8cbf" opacity="1.0"/><rect x="244" y="269" width="10" height="11" fill="#ff8cbf" opacity="1.0"/><rect x="256" y="269" width="10" height="11" fill="#ff8cbf" opacity="1.0"/><rect x="268" y="269" width="10" height="11" fill="#ff8cbf" opacity="1.0"/><rect x="280" y="269" width="10" height="11" fill="#ff8cbf" opacity="1.0"/><rect x="292" y="269" width="10" height="11" fill="#ff8cbf" opacity="1.0"/><rect x="304" y="269" width="10" height="11" fill="#ff8cbf" opacity="1.0"/><rect x="316" y="269" width="10" height="11" fill="#ff8cbf" opacity="1.0"/>
<text x="704" y="275" font-size="13" fill="#8497ab">372 &#8594; <tspan fill="#ff8cbf" font-weight="700">197 ms</tspan></text>
<text x="32" y="312" font-size="13" font-weight="700" fill="#d7e0ea">WIDGETS</text>
<rect x="160" y="295" width="10" height="9" fill="#a8d8ff" opacity="0.35"/><rect x="172" y="295" width="10" height="9" fill="#a8d8ff" opacity="0.35"/><rect x="184" y="295" width="10" height="9" fill="#a8d8ff" opacity="0.35"/><rect x="196" y="295" width="10" height="9" fill="#a8d8ff" opacity="0.35"/><rect x="208" y="295" width="10" height="9" fill="#a8d8ff" opacity="0.35"/><rect x="220" y="295" width="10" height="9" fill="#a8d8ff" opacity="0.35"/><rect x="232" y="295" width="10" height="9" fill="#a8d8ff" opacity="0.35"/><rect x="244" y="295" width="10" height="9" fill="#a8d8ff" opacity="0.35"/><rect x="256" y="295" width="10" height="9" fill="#a8d8ff" opacity="0.35"/><rect x="268" y="295" width="10" height="9" fill="#a8d8ff" opacity="0.35"/><rect x="280" y="295" width="10" height="9" fill="#a8d8ff" opacity="0.35"/><rect x="292" y="295" width="10" height="9" fill="#a8d8ff" opacity="0.35"/><rect x="304" y="295" width="10" height="9" fill="#a8d8ff" opacity="0.35"/><rect x="316" y="295" width="10" height="9" fill="#a8d8ff" opacity="0.35"/><rect x="328" y="295" width="10" height="9" fill="#a8d8ff" opacity="0.35"/><rect x="340" y="295" width="10" height="9" fill="#a8d8ff" opacity="0.35"/><rect x="352" y="295" width="10" height="9" fill="#a8d8ff" opacity="0.35"/><rect x="364" y="295" width="10" height="9" fill="#a8d8ff" opacity="0.35"/><rect x="376" y="295" width="10" height="9" fill="#a8d8ff" opacity="0.35"/><rect x="388" y="295" width="10" height="9" fill="#a8d8ff" opacity="0.35"/><rect x="400" y="295" width="10" height="9" fill="#a8d8ff" opacity="0.35"/><rect x="412" y="295" width="10" height="9" fill="#a8d8ff" opacity="0.35"/><rect x="424" y="295" width="10" height="9" fill="#a8d8ff" opacity="0.35"/><rect x="436" y="295" width="10" height="9" fill="#a8d8ff" opacity="0.35"/><rect x="448" y="295" width="10" height="9" fill="#a8d8ff" opacity="0.35"/><rect x="460" y="295" width="10" height="9" fill="#a8d8ff" opacity="0.35"/>
<rect x="160" y="307" width="10" height="11" fill="#ff8cbf" opacity="1.0"/><rect x="172" y="307" width="10" height="11" fill="#ff8cbf" opacity="1.0"/><rect x="184" y="307" width="10" height="11" fill="#ff8cbf" opacity="1.0"/><rect x="196" y="307" width="10" height="11" fill="#ff8cbf" opacity="1.0"/><rect x="208" y="307" width="10" height="11" fill="#ff8cbf" opacity="1.0"/><rect x="220" y="307" width="10" height="11" fill="#ff8cbf" opacity="1.0"/><rect x="232" y="307" width="10" height="11" fill="#ff8cbf" opacity="1.0"/><rect x="244" y="307" width="10" height="11" fill="#ff8cbf" opacity="1.0"/><rect x="256" y="307" width="10" height="11" fill="#ff8cbf" opacity="1.0"/><rect x="268" y="307" width="10" height="11" fill="#ff8cbf" opacity="1.0"/><rect x="280" y="307" width="10" height="11" fill="#ff8cbf" opacity="1.0"/><rect x="292" y="307" width="10" height="11" fill="#ff8cbf" opacity="1.0"/><rect x="304" y="307" width="10" height="11" fill="#ff8cbf" opacity="1.0"/>
<text x="704" y="313" font-size="13" fill="#8497ab">364 &#8594; <tspan fill="#ff8cbf" font-weight="700">189 ms</tspan></text>
<text x="32" y="350" font-size="13" font-weight="700" fill="#d7e0ea">TERMINAL</text>
<rect x="160" y="333" width="10" height="9" fill="#a8d8ff" opacity="0.35"/><rect x="172" y="333" width="10" height="9" fill="#a8d8ff" opacity="0.35"/><rect x="184" y="333" width="10" height="9" fill="#a8d8ff" opacity="0.35"/><rect x="196" y="333" width="10" height="9" fill="#a8d8ff" opacity="0.35"/><rect x="208" y="333" width="10" height="9" fill="#a8d8ff" opacity="0.35"/><rect x="220" y="333" width="10" height="9" fill="#a8d8ff" opacity="0.35"/><rect x="232" y="333" width="10" height="9" fill="#a8d8ff" opacity="0.35"/><rect x="244" y="333" width="10" height="9" fill="#a8d8ff" opacity="0.35"/><rect x="256" y="333" width="10" height="9" fill="#a8d8ff" opacity="0.35"/><rect x="268" y="333" width="10" height="9" fill="#a8d8ff" opacity="0.35"/><rect x="280" y="333" width="10" height="9" fill="#a8d8ff" opacity="0.35"/><rect x="292" y="333" width="10" height="9" fill="#a8d8ff" opacity="0.35"/><rect x="304" y="333" width="10" height="9" fill="#a8d8ff" opacity="0.35"/><rect x="316" y="333" width="10" height="9" fill="#a8d8ff" opacity="0.35"/><rect x="328" y="333" width="10" height="9" fill="#a8d8ff" opacity="0.35"/><rect x="340" y="333" width="10" height="9" fill="#a8d8ff" opacity="0.35"/><rect x="352" y="333" width="10" height="9" fill="#a8d8ff" opacity="0.35"/><rect x="364" y="333" width="10" height="9" fill="#a8d8ff" opacity="0.35"/><rect x="376" y="333" width="10" height="9" fill="#a8d8ff" opacity="0.35"/><rect x="388" y="333" width="10" height="9" fill="#a8d8ff" opacity="0.35"/><rect x="400" y="333" width="10" height="9" fill="#a8d8ff" opacity="0.35"/><rect x="412" y="333" width="10" height="9" fill="#a8d8ff" opacity="0.35"/><rect x="424" y="333" width="10" height="9" fill="#a8d8ff" opacity="0.35"/><rect x="436" y="333" width="10" height="9" fill="#a8d8ff" opacity="0.35"/><rect x="448" y="333" width="10" height="9" fill="#a8d8ff" opacity="0.35"/>
<rect x="160" y="345" width="10" height="11" fill="#ff8cbf" opacity="1.0"/><rect x="172" y="345" width="10" height="11" fill="#ff8cbf" opacity="1.0"/><rect x="184" y="345" width="10" height="11" fill="#ff8cbf" opacity="1.0"/><rect x="196" y="345" width="10" height="11" fill="#ff8cbf" opacity="1.0"/><rect x="208" y="345" width="10" height="11" fill="#ff8cbf" opacity="1.0"/><rect x="220" y="345" width="10" height="11" fill="#ff8cbf" opacity="1.0"/><rect x="232" y="345" width="10" height="11" fill="#ff8cbf" opacity="1.0"/><rect x="244" y="345" width="10" height="11" fill="#ff8cbf" opacity="1.0"/><rect x="256" y="345" width="10" height="11" fill="#ff8cbf" opacity="1.0"/><rect x="268" y="345" width="10" height="11" fill="#ff8cbf" opacity="1.0"/><rect x="280" y="345" width="10" height="11" fill="#ff8cbf" opacity="1.0"/><rect x="292" y="345" width="10" height="11" fill="#ff8cbf" opacity="1.0"/><rect x="304" y="345" width="10" height="11" fill="#ff8cbf" opacity="1.0"/>
<text x="704" y="351" font-size="13" fill="#8497ab">358 &#8594; <tspan fill="#ff8cbf" font-weight="700">177 ms</tspan></text>
<text x="32" y="388" font-size="13" font-weight="700" fill="#d7e0ea">LAYOUT</text>
<rect x="160" y="371" width="10" height="9" fill="#a8d8ff" opacity="0.35"/><rect x="172" y="371" width="10" height="9" fill="#a8d8ff" opacity="0.35"/><rect x="184" y="371" width="10" height="9" fill="#a8d8ff" opacity="0.35"/><rect x="196" y="371" width="10" height="9" fill="#a8d8ff" opacity="0.35"/><rect x="208" y="371" width="10" height="9" fill="#a8d8ff" opacity="0.35"/><rect x="220" y="371" width="10" height="9" fill="#a8d8ff" opacity="0.35"/><rect x="232" y="371" width="10" height="9" fill="#a8d8ff" opacity="0.35"/><rect x="244" y="371" width="10" height="9" fill="#a8d8ff" opacity="0.35"/><rect x="256" y="371" width="10" height="9" fill="#a8d8ff" opacity="0.35"/><rect x="268" y="371" width="10" height="9" fill="#a8d8ff" opacity="0.35"/><rect x="280" y="371" width="10" height="9" fill="#a8d8ff" opacity="0.35"/><rect x="292" y="371" width="10" height="9" fill="#a8d8ff" opacity="0.35"/><rect x="304" y="371" width="10" height="9" fill="#a8d8ff" opacity="0.35"/><rect x="316" y="371" width="10" height="9" fill="#a8d8ff" opacity="0.35"/><rect x="328" y="371" width="10" height="9" fill="#a8d8ff" opacity="0.35"/><rect x="340" y="371" width="10" height="9" fill="#a8d8ff" opacity="0.35"/><rect x="352" y="371" width="10" height="9" fill="#a8d8ff" opacity="0.35"/><rect x="364" y="371" width="10" height="9" fill="#a8d8ff" opacity="0.35"/><rect x="376" y="371" width="10" height="9" fill="#a8d8ff" opacity="0.35"/><rect x="388" y="371" width="10" height="9" fill="#a8d8ff" opacity="0.35"/><rect x="400" y="371" width="10" height="9" fill="#a8d8ff" opacity="0.35"/><rect x="412" y="371" width="10" height="9" fill="#a8d8ff" opacity="0.35"/>
<rect x="160" y="383" width="10" height="11" fill="#ff8cbf" opacity="1.0"/><rect x="172" y="383" width="10" height="11" fill="#ff8cbf" opacity="1.0"/><rect x="184" y="383" width="10" height="11" fill="#ff8cbf" opacity="1.0"/><rect x="196" y="383" width="10" height="11" fill="#ff8cbf" opacity="1.0"/><rect x="208" y="383" width="10" height="11" fill="#ff8cbf" opacity="1.0"/><rect x="220" y="383" width="10" height="11" fill="#ff8cbf" opacity="1.0"/><rect x="232" y="383" width="10" height="11" fill="#ff8cbf" opacity="1.0"/><rect x="244" y="383" width="10" height="11" fill="#ff8cbf" opacity="1.0"/><rect x="256" y="383" width="10" height="11" fill="#ff8cbf" opacity="1.0"/><rect x="268" y="383" width="10" height="11" fill="#ff8cbf" opacity="1.0"/>
<text x="704" y="389" font-size="13" fill="#8497ab">307 &#8594; <tspan fill="#ff8cbf" font-weight="700">145 ms</tspan></text>
<text x="32" y="426" font-size="13" font-weight="700" fill="#d7e0ea">HOME</text>
<rect x="160" y="409" width="10" height="9" fill="#a8d8ff" opacity="0.35"/><rect x="172" y="409" width="10" height="9" fill="#a8d8ff" opacity="0.35"/><rect x="184" y="409" width="10" height="9" fill="#a8d8ff" opacity="0.35"/><rect x="196" y="409" width="10" height="9" fill="#a8d8ff" opacity="0.35"/><rect x="208" y="409" width="10" height="9" fill="#a8d8ff" opacity="0.35"/><rect x="220" y="409" width="10" height="9" fill="#a8d8ff" opacity="0.35"/><rect x="232" y="409" width="10" height="9" fill="#a8d8ff" opacity="0.35"/><rect x="244" y="409" width="10" height="9" fill="#a8d8ff" opacity="0.35"/><rect x="256" y="409" width="10" height="9" fill="#a8d8ff" opacity="0.35"/><rect x="268" y="409" width="10" height="9" fill="#a8d8ff" opacity="0.35"/><rect x="280" y="409" width="10" height="9" fill="#a8d8ff" opacity="0.35"/><rect x="292" y="409" width="10" height="9" fill="#a8d8ff" opacity="0.35"/><rect x="304" y="409" width="10" height="9" fill="#a8d8ff" opacity="0.35"/><rect x="316" y="409" width="10" height="9" fill="#a8d8ff" opacity="0.35"/><rect x="328" y="409" width="10" height="9" fill="#a8d8ff" opacity="0.35"/><rect x="340" y="409" width="10" height="9" fill="#a8d8ff" opacity="0.35"/><rect x="352" y="409" width="10" height="9" fill="#a8d8ff" opacity="0.35"/><rect x="364" y="409" width="10" height="9" fill="#a8d8ff" opacity="0.35"/><rect x="376" y="409" width="10" height="9" fill="#a8d8ff" opacity="0.35"/><rect x="388" y="409" width="10" height="9" fill="#a8d8ff" opacity="0.35"/><rect x="400" y="409" width="10" height="9" fill="#a8d8ff" opacity="0.35"/>
<rect x="160" y="421" width="10" height="11" fill="#ff8cbf" opacity="1.0"/><rect x="172" y="421" width="10" height="11" fill="#ff8cbf" opacity="1.0"/><rect x="184" y="421" width="10" height="11" fill="#ff8cbf" opacity="1.0"/><rect x="196" y="421" width="10" height="11" fill="#ff8cbf" opacity="1.0"/><rect x="208" y="421" width="10" height="11" fill="#ff8cbf" opacity="1.0"/><rect x="220" y="421" width="10" height="11" fill="#ff8cbf" opacity="1.0"/><rect x="232" y="421" width="10" height="11" fill="#ff8cbf" opacity="1.0"/><rect x="244" y="421" width="10" height="11" fill="#ff8cbf" opacity="1.0"/><rect x="256" y="421" width="10" height="11" fill="#ff8cbf" opacity="1.0"/><rect x="268" y="421" width="10" height="11" fill="#ff8cbf" opacity="1.0"/><rect x="280" y="421" width="10" height="11" fill="#ff8cbf" opacity="1.0"/>
<text x="704" y="427" font-size="13" fill="#8497ab">288 &#8594; <tspan fill="#ff8cbf" font-weight="700">149 ms</tspan></text>
<text x="32" y="464" font-size="13" font-weight="700" fill="#d7e0ea">CASE STUDY</text>
<rect x="160" y="447" width="10" height="9" fill="#a8d8ff" opacity="0.35"/><rect x="172" y="447" width="10" height="9" fill="#a8d8ff" opacity="0.35"/><rect x="184" y="447" width="10" height="9" fill="#a8d8ff" opacity="0.35"/><rect x="196" y="447" width="10" height="9" fill="#a8d8ff" opacity="0.35"/><rect x="208" y="447" width="10" height="9" fill="#a8d8ff" opacity="0.35"/><rect x="220" y="447" width="10" height="9" fill="#a8d8ff" opacity="0.35"/><rect x="232" y="447" width="10" height="9" fill="#a8d8ff" opacity="0.35"/><rect x="244" y="447" width="10" height="9" fill="#a8d8ff" opacity="0.35"/><rect x="256" y="447" width="10" height="9" fill="#a8d8ff" opacity="0.35"/><rect x="268" y="447" width="10" height="9" fill="#a8d8ff" opacity="0.35"/><rect x="280" y="447" width="10" height="9" fill="#a8d8ff" opacity="0.35"/><rect x="292" y="447" width="10" height="9" fill="#a8d8ff" opacity="0.35"/><rect x="304" y="447" width="10" height="9" fill="#a8d8ff" opacity="0.35"/><rect x="316" y="447" width="10" height="9" fill="#a8d8ff" opacity="0.35"/><rect x="328" y="447" width="10" height="9" fill="#a8d8ff" opacity="0.35"/><rect x="340" y="447" width="10" height="9" fill="#a8d8ff" opacity="0.35"/><rect x="352" y="447" width="10" height="9" fill="#a8d8ff" opacity="0.35"/><rect x="364" y="447" width="10" height="9" fill="#a8d8ff" opacity="0.35"/><rect x="376" y="447" width="10" height="9" fill="#a8d8ff" opacity="0.35"/><rect x="388" y="447" width="10" height="9" fill="#a8d8ff" opacity="0.35"/>
<rect x="160" y="459" width="10" height="11" fill="#ff8cbf" opacity="1.0"/><rect x="172" y="459" width="10" height="11" fill="#ff8cbf" opacity="1.0"/><rect x="184" y="459" width="10" height="11" fill="#ff8cbf" opacity="1.0"/><rect x="196" y="459" width="10" height="11" fill="#ff8cbf" opacity="1.0"/><rect x="208" y="459" width="10" height="11" fill="#ff8cbf" opacity="1.0"/><rect x="220" y="459" width="10" height="11" fill="#ff8cbf" opacity="1.0"/><rect x="232" y="459" width="10" height="11" fill="#ff8cbf" opacity="1.0"/><rect x="244" y="459" width="10" height="11" fill="#ff8cbf" opacity="1.0"/><rect x="256" y="459" width="10" height="11" fill="#ff8cbf" opacity="1.0"/>
<text x="704" y="465" font-size="13" fill="#8497ab">283 &#8594; <tspan fill="#ff8cbf" font-weight="700">132 ms</tspan></text>
<rect x="32" y="508" width="14" height="10" fill="#a8d8ff" opacity="0.35"/><text x="54" y="518" font-size="12" fill="#8497ab">before</text>
<rect x="128" y="508" width="14" height="10" fill="#ff8cbf"/><text x="150" y="518" font-size="12" fill="#8497ab">after</text>
</svg>